<svg width="290" height="290" viewBox="0 0 290 290" fill="none" xmlns="http://www.w3.org/2000/svg">
<g clip-path="url(#clip0_358_928)">
<path d="M277.039 47.9189C269.392 43.6419 262.782 55.1769 270.17 59.5835C272.114 60.75 275.743 62.1757 276.65 64.379C277.817 67.2304 275.484 69.0449 273.021 70.7297C267.448 74.618 260.968 77.3397 254.876 80.191C241.916 86.153 227.659 89.5227 214.958 95.6143C210.421 97.8176 212.625 105.464 217.55 105.076C228.177 104.428 238.935 100.28 248.785 96.3919C258.246 92.7629 267.578 88.6155 276.391 83.6904C282.742 80.0614 289.611 74.7476 290.13 66.8415C290.648 57.8987 284.038 51.9367 277.039 47.9189Z" fill="#FBF4ED"/>
<path d="M273.021 124.257C271.725 120.888 268.744 119.462 265.893 119.462C265.763 119.332 265.763 119.203 265.634 119.203C262.005 114.278 252.803 115.314 253.062 122.572C253.192 125.942 249.951 132.163 247.23 126.979C246.452 125.553 245.415 124.646 244.249 124.257C242.305 122.443 239.583 122.443 237.38 123.48C229.862 127.109 223.512 137.736 224.937 146.161C225.456 149.271 227.27 152.382 229.733 154.974C232.714 165.732 242.045 174.026 255.136 170.527C263.69 168.194 270.689 161.325 274.188 153.289C278.595 143.439 276.91 133.848 273.021 124.257Z" fill="#FBF4ED"/>
<path d="M253.451 36.6431C253.321 36.3839 253.192 36.1247 252.932 35.9951C252.803 35.9951 252.803 35.8655 252.673 35.8655C252.544 35.8655 252.284 35.8655 252.155 35.8655C251.636 35.9951 251.118 35.9951 250.599 36.1247C250.47 36.1247 250.34 36.2543 250.211 36.2543C250.081 36.3839 250.081 36.3839 249.951 36.5135C249.822 36.7727 249.822 37.0319 249.822 37.2912C249.951 37.5504 250.081 37.8096 250.211 37.8096C250.34 37.8096 250.34 37.9392 250.47 37.9392C250.599 37.9392 250.859 37.9392 250.988 37.9392C251.507 37.8096 252.025 37.8096 252.544 37.68C252.673 37.68 252.803 37.5504 252.932 37.5504C253.062 37.4208 253.062 37.4208 253.192 37.2912C253.451 37.1615 253.58 36.9023 253.451 36.6431Z" fill="#424B5C"/>
<path d="M270.429 51.8071C270.3 51.8071 270.3 51.9364 270.429 51.8071V51.8071Z" fill="#424B5C"/>
<path d="M281.835 56.4729C280.409 55.4361 278.854 54.5288 277.298 53.6216C276.002 52.844 274.966 52.0663 273.929 51.0295V50.8999C273.929 50.7702 273.929 50.6406 273.929 50.511C274.188 49.9926 274.188 49.3446 273.54 49.0854C273.281 48.9558 272.892 48.6965 272.633 48.5669C272.503 48.4373 272.373 48.4373 272.244 48.3077C272.244 48.3077 272.114 48.3077 272.114 48.1781L271.985 48.0485C271.725 47.7893 271.466 47.5301 271.207 47.4005L271.077 47.2709C271.077 47.2709 271.077 47.2709 271.077 47.1413C270.948 47.0116 270.818 46.882 270.818 46.7524C270.688 46.4932 270.429 46.234 270.3 45.8452C270.3 45.8452 270.3 45.7156 270.17 45.7156V45.586C270.17 45.4564 270.04 45.3268 270.04 45.0675C269.911 44.8083 269.911 44.4195 269.781 44.1603V44.0307C269.781 43.9011 269.781 43.9011 269.781 43.7715C269.781 43.6419 269.781 43.6419 269.781 43.5123C269.911 43.253 269.911 42.8642 269.781 42.4754C269.263 41.3089 267.837 40.6609 266.671 40.2721C265.504 39.8833 264.079 39.8833 262.912 40.4017C260.45 41.3089 258.635 43.6419 258.765 46.3636V46.4932C258.376 47.1413 258.117 47.9189 258.117 48.6965C258.246 49.863 258.894 50.8999 259.931 51.5479C261.486 52.5847 263.301 52.5847 264.986 52.9736C265.245 52.9736 265.375 53.1032 265.634 53.2328H265.763C265.893 53.2328 265.893 53.3624 266.023 53.3624C266.152 53.3624 266.152 53.492 266.282 53.492C266.411 53.6216 266.411 53.6216 266.541 53.7512C266.541 53.7512 266.541 53.7512 266.671 53.8808C266.93 54.14 267.189 54.3992 267.578 54.3992V54.5288C267.967 55.3065 268.615 56.0841 269.522 56.3433C269.652 56.3433 269.911 56.3433 270.04 56.3433C269.781 56.7322 269.911 57.3802 270.559 57.6394C273.929 58.6763 278.983 60.2315 278.983 64.5086C278.983 68.9152 274.188 72.933 270.948 75.3956C263.301 81.2279 253.71 84.8569 244.767 88.2266C239.194 90.3003 233.621 92.2444 227.918 93.9293C226.622 94.3182 227.141 96.3919 228.566 96.003C239.842 92.7629 250.859 88.6154 261.486 83.5608C266.152 81.3575 270.559 78.8949 274.577 75.5252C278.076 72.5442 282.353 68.2672 281.575 63.3421C280.798 58.2874 275.484 56.4729 271.207 55.6953C271.077 55.6953 270.948 55.6953 270.818 55.6953C270.818 55.6953 270.818 55.6953 270.818 55.5657C271.077 55.0473 270.818 54.6585 270.429 54.2696L270.3 54.14C270.17 54.0104 270.04 53.8808 269.911 53.7512C269.911 53.6216 269.781 53.6216 269.781 53.492V53.3624C269.781 53.2328 269.781 53.2328 269.781 53.1032C269.781 52.9736 269.781 52.844 269.781 52.844C269.781 52.844 269.781 52.844 269.781 52.7143V52.5847C269.781 52.5847 269.781 52.5847 269.781 52.7143C269.781 52.7143 269.781 52.7144 269.781 52.5847C269.781 52.4551 269.781 52.4551 269.781 52.3255L269.911 52.1959L270.04 52.0663L270.17 51.9367C270.3 51.9367 270.3 51.8071 270.429 51.8071C270.429 51.8071 270.429 51.8071 270.3 51.8071C270.3 51.8071 270.3 51.8071 270.429 51.8071C270.559 51.8071 270.559 51.8071 270.688 51.8071C270.818 51.8071 270.948 51.8071 271.077 51.8071C271.207 51.8071 271.207 51.8071 271.337 51.8071C271.337 51.8071 271.337 51.8071 271.466 51.8071C272.762 54.2696 276.002 55.6953 278.206 57.121C281.446 59.1947 283.649 61.7868 283.131 65.9343C282.483 70.0817 279.502 73.1922 276.391 75.6548C272.892 78.5061 269.133 81.0983 265.375 83.4312C264.079 84.2088 265.245 86.1529 266.541 85.3753C270.818 83.0424 274.836 80.191 278.595 77.0804C281.964 74.2291 284.945 70.7297 285.723 66.3231C286.501 62.4349 285.075 58.8059 281.835 56.4729Z" fill="#424B5C"/>
<path d="M246.323 135.663C244.119 135.274 242.435 133.2 242.564 130.997C242.564 130.09 243.212 129.053 243.86 128.275C244.249 127.886 244.767 127.627 245.156 127.368C245.545 127.109 246.064 126.979 246.452 126.849C246.582 126.849 246.582 126.849 246.712 126.849C247.748 126.59 247.489 125.035 246.452 125.035C246.323 125.035 246.323 125.035 246.193 125.035C244.767 124.776 243.083 125.813 242.046 126.72C240.879 127.886 240.102 129.442 239.972 131.127C239.713 134.367 242.305 137.607 245.545 138.125C246.193 138.255 246.712 137.996 246.971 137.348C247.23 136.44 246.841 135.792 246.323 135.663Z" fill="#424B5C"/>
<path d="M253.839 128.923C253.71 128.794 253.71 128.794 253.839 128.923V128.923Z" fill="#424B5C"/>
<path d="M257.469 129.96C257.469 129.442 257.08 128.923 256.432 128.794C256.432 128.664 256.302 128.405 256.302 128.275C255.654 126.85 254.358 125.683 252.932 125.424C252.414 125.294 251.766 125.553 251.636 126.072C251.377 126.59 251.636 127.238 252.155 127.498C252.414 127.627 252.673 127.757 252.932 127.886C252.932 127.886 253.192 128.016 253.321 128.146L253.451 128.275C253.58 128.405 253.71 128.534 253.84 128.664L254.099 128.923V129.053C254.228 129.182 254.228 129.312 254.358 129.442C254.488 129.571 254.488 129.701 254.488 129.83C254.488 129.96 254.488 129.96 254.617 130.09C254.747 130.349 254.747 130.608 254.876 130.867V130.997C254.876 131.127 254.876 131.256 254.876 131.386C254.876 131.515 254.876 131.645 254.876 131.775V131.904C254.876 131.904 254.876 131.904 254.876 131.775C254.876 131.904 254.876 131.904 254.876 132.034C254.876 132.163 254.876 132.293 254.876 132.423C254.876 132.423 254.876 132.423 254.876 132.552C254.747 132.682 254.747 132.941 254.617 133.071C254.488 133.2 254.358 133.459 254.228 133.589C254.228 133.589 254.228 133.719 254.099 133.719C253.969 133.848 253.969 133.848 253.84 133.978C253.71 134.107 253.58 134.237 253.451 134.367C253.321 134.496 253.321 134.496 253.192 134.626C253.192 134.626 253.062 134.756 252.932 134.756C252.932 134.756 252.803 134.885 252.673 134.885C252.543 134.885 252.543 135.015 252.414 135.015C252.284 135.144 252.025 135.274 251.895 135.274C251.766 135.274 251.766 135.404 251.636 135.404C251.636 135.404 251.636 135.404 251.507 135.404C251.507 135.404 251.507 135.404 251.377 135.404C251.118 135.533 250.988 135.533 250.729 135.663C250.34 135.792 249.822 135.922 249.433 135.922C248.914 136.052 248.655 136.57 248.655 137.088C248.785 137.607 249.174 137.866 249.692 137.996C251.766 138.255 253.969 136.959 255.395 135.533C256.821 134.367 257.728 132.163 257.469 129.96Z" fill="#424B5C"/>
<path d="M170.243 30.5516C169.984 27.8299 169.854 24.9785 169.336 22.2568C168.169 16.8133 160.004 17.2021 158.708 22.2568C157.93 25.1081 157.93 28.0891 157.93 31.07C157.93 34.1806 157.671 37.68 159.615 40.4017C162.726 44.8084 168.558 43.9011 170.502 38.976C171.41 36.2543 170.502 33.2733 170.243 30.5516Z" fill="#FBF4ED"/>
<path d="M100.774 115.055C99.8668 112.982 97.5339 111.037 95.2009 111.297C90.5351 111.685 85.61 114.926 82.2402 118.036C80.4258 119.721 80.0369 122.961 81.333 125.035C82.7587 127.238 85.2212 128.275 87.8133 127.627C89.8871 127.109 91.9608 126.201 94.0345 125.294C95.9786 124.387 98.1819 123.48 99.6076 121.665C101.033 119.721 101.811 117.518 100.774 115.055Z" fill="#FBF4ED"/>
<path d="M257.987 32.8845C257.21 31.5885 255.784 30.422 254.229 30.1628C253.322 30.0332 252.414 29.9036 251.637 30.1628C251.248 30.1628 250.859 30.1628 250.47 30.1628C250.081 30.1628 249.693 30.1628 249.304 30.1628C249.304 30.0332 249.304 29.9036 249.304 29.774C247.878 14.4803 231.548 6.18551 217.809 12.1474C200.96 19.4054 189.814 38.0688 179.057 51.9367C174.391 57.8987 182.815 64.5086 187.352 58.4171C195.128 48.0485 202.775 37.0319 212.366 28.2187C216.513 24.3305 222.346 19.1462 228.567 20.0534C234.14 20.9607 238.287 26.0154 239.713 31.07C240.361 33.4029 242.694 34.5694 244.768 34.4398C244.768 34.699 244.768 34.8286 244.768 35.0878C244.897 35.8655 244.897 36.7727 245.156 37.5504C245.545 38.7168 246.193 39.8833 247.1 40.6609C248.785 42.4754 251.507 43.2531 253.97 42.605C256.303 41.957 258.117 40.0129 258.635 37.68C259.154 36.1247 258.895 34.3102 257.987 32.8845Z" fill="#FBF4ED"/>
<path d="M267.967 132.423C267.837 132.163 267.578 132.034 267.319 131.904C267.319 131.904 267.319 131.904 267.319 131.775C267.967 125.294 265.245 118.166 259.542 114.666C253.451 111.037 244.767 111.945 240.36 117.907C239.453 119.203 241.527 120.758 242.564 119.592C245.934 115.703 251.377 114.537 256.172 116.351C261.357 118.295 264.208 123.869 264.467 129.182C264.597 132.034 264.078 135.015 262.653 137.607C261.098 140.588 258.376 142.402 255.265 143.31C250.081 144.865 243.341 144.606 239.194 140.717C233.232 135.274 235.824 126.59 240.49 121.276C241.397 120.24 239.972 118.684 238.935 119.721C236.602 121.795 234.787 124.517 233.75 127.498C231.547 128.275 229.862 130.349 228.696 132.293C227.141 134.756 226.363 137.607 225.974 140.458C225.585 143.31 225.585 146.55 226.493 149.401C227.011 150.827 227.789 152.512 229.085 153.678C228.437 154.974 227.789 156.27 227.27 157.307C226.752 158.474 226.104 159.64 225.585 160.807C225.067 161.714 224.808 162.751 225.196 163.787C225.456 164.695 226.233 165.343 226.881 165.991C227.011 166.38 227.27 166.509 227.659 166.639C227.918 166.768 228.048 167.028 228.307 167.157V167.287C225.844 172.99 222.734 178.303 219.235 183.358C218.975 183.488 218.716 183.747 218.586 184.136C218.327 184.525 218.068 184.913 217.679 185.302C217.42 185.432 217.031 185.432 216.772 185.691C215.865 186.209 215.606 187.117 215.606 187.894C215.606 187.894 215.606 187.894 215.606 188.024C214.569 188.024 213.661 188.931 213.661 189.968C213.661 189.968 213.661 189.968 213.661 190.098C213.402 190.357 213.273 190.616 213.013 191.005C208.736 195.93 203.941 200.337 198.627 204.354C190.98 210.316 182.426 215.76 173.094 218.87C163.244 222.111 152.617 222.499 142.637 220.037C133.305 217.704 124.362 213.297 116.067 208.631C108.68 204.614 101.551 199.559 96.6264 192.56C91.0533 184.525 89.6277 174.674 91.9606 165.213C94.1639 156.011 99.8666 148.105 106.995 141.884C114.383 135.404 123.455 131.256 132.139 126.979C141.211 122.572 150.024 117.777 158.06 111.685C159.745 110.389 161.3 109.223 162.856 107.927C170.762 113.889 182.426 115.185 191.887 113.241C197.331 112.204 202.126 109.612 207.181 107.538C209.773 106.501 212.495 105.724 215.346 105.464C217.809 105.335 220.271 105.335 222.475 104.039C222.734 103.909 222.864 103.779 222.864 103.52C223.123 103.391 223.252 103.131 223.252 102.872C223.382 102.613 223.382 102.224 223.512 101.965C229.473 101.058 235.565 98.5952 241.138 96.5215C247.1 94.1886 253.58 91.8556 258.894 88.2267C260.061 87.449 259.024 85.8937 257.857 86.4122C255.006 87.7082 252.155 89.2635 249.303 90.5596C246.322 91.8556 243.341 93.1517 240.231 94.3182C237.25 95.4846 234.269 96.3919 231.158 97.2991C228.696 97.9472 226.104 98.5952 223.641 99.3728C223.641 99.2432 223.641 98.984 223.641 98.8544C223.512 98.2064 223.382 97.5583 223.123 96.9103C222.993 96.6511 222.864 96.2623 222.734 96.0031C222.734 96.0031 222.734 96.0031 222.734 95.8735C222.734 95.6143 222.734 95.355 222.604 95.0958C222.604 94.9662 222.475 94.8366 222.345 94.8366C222.215 94.707 221.956 94.4478 222.215 94.707C221.697 94.3182 221.049 94.1886 220.66 94.5774C220.271 94.1886 219.753 94.059 219.235 94.3182C213.273 97.2991 206.792 98.984 200.312 100.669C196.942 101.576 193.572 102.483 190.073 103.391C186.703 104.298 183.204 105.076 179.704 105.076C174.002 104.946 168.558 101.965 166.096 96.6511C163.374 90.6892 166.614 83.6904 169.725 78.6357C173.483 72.5442 178.279 67.4896 183.333 62.4349C183.333 62.4349 183.333 62.4349 183.333 62.3053C183.722 62.0461 183.981 61.7868 184.37 61.5276C184.759 61.2684 185.018 60.75 185.018 60.3612C185.278 60.2316 185.537 60.102 185.666 59.9724C186.055 59.5835 186.055 58.8059 185.537 58.4171C185.407 58.2875 185.278 58.2875 185.278 58.1579C188.388 54.2697 191.11 49.9926 194.091 45.9748C197.331 41.6978 200.701 37.4208 204.33 33.5326C207.959 29.5147 211.847 25.8857 216.254 22.6456C218.327 21.0903 220.401 19.6646 222.604 18.3686C224.937 17.0725 227.4 15.5172 229.992 14.9988C234.01 14.0915 235.954 17.2021 237.898 20.183C239.712 23.0344 241.397 26.145 242.953 29.2555C243.082 29.6444 243.471 29.774 243.86 29.774C244.119 30.5516 244.119 31.4588 243.86 32.3661C243.601 33.4029 243.341 34.5694 243.471 35.6063C243.601 36.6431 244.249 37.5504 245.156 37.9392C245.285 37.9392 245.415 38.0688 245.545 38.0688C245.674 38.1984 245.934 38.328 246.193 38.328C246.711 38.328 247.1 38.0688 247.23 37.68C247.23 37.5504 247.359 37.2912 247.359 37.1615C247.489 36.9023 247.618 36.6431 247.878 36.3839C248.007 36.2543 248.137 35.9951 248.396 35.8655C248.526 35.7359 248.785 35.6063 248.914 35.6063C249.044 35.6063 249.174 35.4767 249.303 35.4767C249.822 35.3471 250.081 34.8286 249.951 34.4398V34.3102C251.377 33.5326 253.062 33.6622 254.617 34.051C255.006 34.1806 255.524 34.3102 255.913 34.699C255.913 35.0878 255.913 35.3471 256.172 35.6063C256.302 35.7359 256.302 35.7359 256.432 35.7359C256.302 37.0319 254.876 37.5504 253.84 37.8096C252.155 38.1984 250.34 38.328 248.655 38.0688C248.137 38.0688 247.748 38.4576 247.748 38.976C247.748 39.4945 248.007 40.0129 248.396 40.0129C250.34 40.4017 252.414 40.4017 254.358 39.7537C256.043 39.2353 257.728 38.1984 258.246 36.3839C258.376 35.8655 258.376 35.3471 258.246 34.8286C258.765 33.7918 258.376 32.4957 257.598 31.5885C257.209 31.07 256.691 30.6812 256.172 30.2924C255.654 29.774 255.136 29.2555 254.747 28.7371C253.969 27.8299 253.191 26.6634 252.543 25.7561C252.155 25.2377 251.766 24.7193 251.118 24.3305C250.729 24.0713 250.211 23.9416 249.692 23.9416C249.303 23.812 248.914 23.5528 248.396 23.4232C244.119 18.4982 242.434 11.1106 235.954 8.51843C232.584 7.09275 229.085 8 225.844 9.55528C222.086 11.3698 218.198 13.3139 214.698 15.6468C213.532 16.4244 214.569 17.8501 215.735 17.3317C219.105 15.906 222.215 14.0915 225.456 12.5362C228.696 10.981 232.325 9.42568 235.695 11.3698C240.231 13.8323 242.045 19.1462 244.897 23.4232C244.637 23.5528 244.378 23.5528 244.249 23.6824C243.73 23.9416 243.341 24.3305 243.082 24.8489C242.175 23.164 241.268 21.4791 240.231 19.7942C238.805 17.4613 237.12 14.61 234.658 13.3139C229.733 10.7217 223.252 14.9988 219.105 17.5909C209.255 23.6824 201.219 32.3661 194.22 41.4386C192.276 43.9011 190.462 46.4932 188.518 49.0854C186.703 51.5479 184.889 54.14 183.333 56.7322C182.945 56.473 182.685 56.2138 182.297 55.9545C182.037 55.8249 181.908 55.5657 181.649 55.4361L181.778 55.3065C185.666 49.6038 189.036 43.6419 192.924 37.9392C196.294 32.8845 200.053 27.8299 205.107 24.2009C206.403 23.2936 205.237 21.0903 203.811 21.9975C198.627 25.6265 194.739 30.422 191.239 35.6063C187.222 41.5682 183.333 47.6597 179.704 53.8808C179.445 53.7512 179.186 53.492 178.927 53.492C178.538 53.3624 178.149 53.3624 177.76 53.6216C177.631 53.7512 177.501 54.14 177.501 54.3993C177.112 54.2697 176.723 54.2697 176.335 54.3993C175.298 54.7881 174.52 55.8249 173.872 56.473C172.965 57.5098 172.058 58.5467 171.28 59.5835C167.91 63.731 165.188 68.3968 162.337 72.933C159.615 77.3397 155.857 81.7463 154.431 86.801C153.135 91.2076 153.913 95.8735 155.209 100.15C155.338 100.799 155.468 101.447 155.598 101.965C151.45 106.76 144.581 108.445 139.137 110.908C132.398 114.018 125.918 117.647 119.567 121.536C108.032 128.534 95.5896 135.274 88.202 147.068C84.8322 152.382 82.6289 158.474 81.2032 164.695C79.9071 171.175 78.9999 178.303 80.944 184.654C82.7585 190.746 86.7763 196.189 90.6645 200.985C94.4231 205.65 98.7001 209.798 103.366 213.556C113.864 221.981 126.436 228.202 139.786 230.535C140.174 230.665 140.563 230.535 140.822 230.276C140.952 230.405 141.211 230.535 141.47 230.535C158.449 231.183 176.205 229.109 191.11 220.296C203.552 212.908 213.921 202.021 222.604 190.486C223.252 190.098 223.771 189.45 224.03 188.672C224.03 188.542 224.16 188.413 224.16 188.283C224.548 187.765 224.937 187.246 225.326 186.728C229.992 180.248 234.139 173.249 237.509 165.991C238.805 164.954 239.842 163.528 240.749 162.232C241.786 162.88 243.212 163.139 244.637 163.269C246.97 163.528 249.303 163.528 251.507 163.269C255.913 162.751 259.413 160.418 262.005 156.918C267.837 151.086 272.892 140.458 267.967 132.423ZM133.046 117.907V118.036C131.75 118.814 130.583 119.592 129.287 120.369C129.158 120.24 129.158 120.24 129.028 120.11C130.195 119.462 131.62 118.684 133.046 117.907ZM128.38 125.683C128.769 125.553 129.028 125.294 129.417 125.165C129.417 125.294 129.547 125.294 129.547 125.424C128.51 125.942 127.602 126.331 126.566 126.849C127.084 126.461 127.732 126.072 128.38 125.683ZM113.864 133.589C115.808 132.293 117.882 130.997 119.826 129.83C119.956 129.96 120.085 129.96 120.085 130.09C117.752 131.386 115.419 132.682 113.216 134.107C113.475 133.848 113.735 133.719 113.864 133.589ZM83.4065 178.822C83.2769 176.878 83.2769 174.934 83.5361 172.99C83.4065 174.804 83.4065 176.878 83.4065 178.822ZM92.2198 147.457C91.7014 148.364 91.3125 149.271 91.0533 150.179C90.7941 150.179 90.6645 150.179 90.5349 150.179C90.9237 149.401 91.5718 148.364 92.2198 147.457ZM94.0343 193.856C93.127 192.69 92.2198 191.394 91.4422 190.098C90.9237 188.672 90.5349 187.246 90.1461 185.95C90.5349 186.987 90.9237 188.024 91.3125 189.061C92.0902 190.875 93.127 192.56 94.1639 194.115C94.2935 193.986 94.1639 193.856 94.0343 193.856ZM103.884 210.187C103.366 209.668 102.718 209.279 102.2 208.761C102.588 209.02 102.848 209.15 103.236 209.409C103.755 209.798 104.273 210.187 104.792 210.576C104.532 210.446 104.144 210.316 103.884 210.187ZM115.679 218.482C114.253 217.704 112.957 216.797 111.531 215.889C111.661 215.889 111.661 215.76 111.661 215.76C112.05 215.889 112.309 216.019 112.698 216.149C113.086 216.278 113.346 216.278 113.605 216.149C115.679 216.667 117.752 217.185 119.826 217.704C119.956 217.704 120.085 217.833 120.085 217.833C118.53 217.445 116.586 217.056 115.679 218.482ZM111.402 212.39C112.05 212.779 112.827 213.297 113.475 213.686C113.346 213.686 113.216 213.686 113.086 213.686C112.568 213.427 112.179 213.297 111.661 213.038C111.661 212.779 111.531 212.649 111.402 212.39ZM119.308 214.205C116.327 212.39 113.475 210.705 110.624 208.761C110.494 208.631 110.365 208.631 110.235 208.502L110.106 208.372C114.383 211.094 118.919 213.556 123.455 215.76C122.029 215.241 120.733 214.723 119.308 214.205ZM134.342 226.647C133.435 226.388 132.657 226.128 131.75 225.869C131.75 225.869 131.75 225.869 131.62 225.74C132.528 225.869 133.305 225.869 134.212 225.61C134.212 225.61 134.212 225.61 134.342 225.61C134.212 225.869 134.212 226.258 134.342 226.647ZM171.28 225.999C171.41 225.869 171.669 225.61 171.669 225.351C171.669 225.221 171.798 225.091 171.928 224.962C171.928 224.962 171.928 224.832 172.058 224.832C172.187 225.221 172.576 225.48 172.965 225.61C172.317 225.74 171.798 225.869 171.28 225.999ZM178.538 223.795C179.056 223.147 179.445 222.629 179.834 221.851C179.964 222.37 180.223 222.759 180.741 222.888C179.964 223.277 179.316 223.536 178.538 223.795ZM182.167 222.37C182.556 221.981 182.815 221.463 183.074 220.944C183.074 221.333 183.333 221.592 183.593 221.722C183.074 221.981 182.685 222.24 182.167 222.37ZM198.757 212.39C198.627 212.001 198.627 211.612 198.627 211.224C198.757 211.612 199.145 211.872 199.534 211.872C199.275 212.001 199.016 212.131 198.757 212.39ZM201.219 210.446C201.478 209.798 201.738 209.15 201.867 208.372C201.997 207.983 202.126 207.465 202.515 207.076C202.645 206.947 203.682 206.039 203.811 206.817C203.811 207.206 204.071 207.595 204.33 207.724C203.293 208.631 202.256 209.539 201.219 210.446ZM205.885 206.169C205.885 205.262 206.015 204.225 206.533 203.318C206.792 202.799 206.922 202.41 207.44 202.151C207.44 202.67 207.44 203.188 207.57 203.706C207.57 203.966 207.7 204.095 207.829 204.225C207.311 204.873 206.533 205.521 205.885 206.169ZM223.252 184.654C222.734 184.913 222.475 185.432 222.475 185.95C222.475 186.209 222.345 186.469 222.345 186.598C221.956 186.209 221.438 185.95 220.79 186.209C221.179 185.691 221.567 185.173 221.956 184.654H222.086C222.604 184.784 222.993 184.654 223.252 184.654C223.382 184.654 223.382 184.654 223.252 184.654ZM224.678 183.358C224.678 183.488 224.548 183.747 224.419 184.006C224.289 184.136 224.289 184.265 224.16 184.395C224.03 184.395 223.9 184.395 223.771 184.395C224.289 184.136 224.548 183.358 224.16 182.84C224.16 182.71 224.03 182.71 224.03 182.58C224.03 182.58 224.03 182.58 224.03 182.451V182.321V182.192C224.03 182.192 224.03 182.192 224.03 182.062C224.16 182.062 224.16 182.062 224.16 182.062C224.16 182.062 224.16 182.062 224.289 182.062C224.289 182.062 224.289 182.062 224.419 182.062V182.192C224.419 182.321 224.548 182.58 224.678 182.71C224.808 182.969 224.808 183.228 224.678 183.358ZM230.64 174.415C230.251 175.063 229.862 175.711 229.473 176.489C229.603 175.841 229.603 175.063 229.862 174.415C230.122 173.508 230.381 172.73 230.77 171.953C230.64 172.601 230.51 173.119 230.51 173.767C230.251 173.897 230.381 174.156 230.64 174.415ZM236.991 147.327C236.991 147.457 236.991 147.457 236.991 147.327C236.861 147.457 236.731 147.587 236.602 147.716C236.602 147.716 236.213 148.105 236.083 148.235C236.083 148.235 236.083 148.235 235.824 148.364C235.695 148.494 235.565 148.494 235.435 148.623C235.306 148.753 235.176 148.883 235.047 149.012C233.232 148.753 231.936 149.66 230.77 151.086C229.992 150.179 229.344 149.142 228.955 147.716C228.307 145.254 228.437 142.662 228.696 140.199C228.955 137.866 229.733 135.663 230.899 133.589C231.418 132.682 232.066 132.034 232.714 131.386C232.454 134.626 233.102 137.866 235.047 140.717C235.824 141.754 236.731 142.791 237.768 143.569C237.768 143.569 237.768 143.569 237.768 143.698C237.768 144.217 237.898 144.865 237.768 145.383V145.513C237.768 145.642 237.768 145.772 237.639 145.902C237.639 146.031 237.509 146.161 237.509 146.291V146.42C237.379 146.809 237.25 147.068 236.991 147.327ZM241.008 151.604V151.734C240.101 151.475 239.194 151.086 238.287 150.827C237.898 150.697 237.639 150.568 237.25 150.438C238.416 149.79 239.194 148.753 239.712 147.587C239.972 146.939 240.101 146.161 240.101 145.513C240.101 145.383 240.101 145.254 240.101 145.124C241.268 145.772 242.434 146.161 243.73 146.55C242.953 147.198 242.305 147.975 241.916 148.753C241.397 149.66 241.138 150.568 241.008 151.604ZM266.282 144.606C265.245 148.364 263.301 151.864 261.098 154.974C259.024 157.955 256.432 160.288 252.673 161.066C250.859 161.455 249.044 161.455 247.23 161.455C245.804 161.455 243.989 161.584 242.564 161.066C243.212 159.77 243.73 158.474 244.378 157.178C244.767 156.141 245.286 154.974 244.637 153.808C244.378 153.419 243.989 153.03 243.601 152.9C243.601 152.641 243.601 152.382 243.601 152.123C243.601 151.993 243.601 151.864 243.601 151.734C243.601 151.604 243.73 151.345 243.73 151.216C243.73 150.956 243.86 150.827 243.989 150.697C243.989 150.697 243.989 150.697 243.989 150.568C243.989 150.438 244.119 150.308 244.119 150.308C244.249 149.92 244.508 149.66 244.767 149.271C244.897 149.142 244.897 149.142 245.026 149.012C245.156 148.883 245.285 148.753 245.415 148.623C245.545 148.494 245.674 148.364 245.804 148.235L245.934 148.105C246.063 148.105 246.063 147.975 246.193 147.975C246.452 147.846 246.841 147.587 247.1 147.457C249.174 147.716 251.118 147.587 253.191 147.327C256.95 146.679 260.709 145.124 263.301 142.273C264.727 140.588 265.763 138.644 266.411 136.57C267.059 138.903 267.059 141.625 266.282 144.606Z" fill="#424B5C"/>
<path d="M165.448 30.1628C165.448 29.6443 165.059 29.2555 164.411 29.1259C163.115 29.1259 161.948 29.1259 160.652 29.1259C160.134 29.1259 159.615 29.5147 159.615 30.1628C159.615 30.422 159.745 30.6812 160.004 30.9404C159.874 31.1996 159.745 31.4588 159.745 31.7181C159.745 31.9773 159.874 32.3661 160.134 32.4957C160.393 32.7549 160.652 32.7549 160.911 32.8845C161.3 32.8845 161.819 32.8845 162.207 33.0141C162.596 33.0141 163.115 33.0141 163.503 33.0141C163.763 33.0141 164.022 32.8845 164.281 32.7549C164.411 32.6253 164.67 32.2365 164.54 31.9773C164.54 31.7181 164.411 31.4588 164.281 31.3292H164.411C164.929 31.07 165.448 30.6812 165.448 30.1628Z" fill="#424B5C"/>
<path d="M168.688 21.4791C168.817 21.6083 168.817 21.6083 168.688 21.4791V21.4791Z" fill="#424B5C"/>
<path d="M172.057 33.0141C172.057 32.8845 171.928 32.7549 171.928 32.6253V32.4957C171.798 32.3661 171.669 32.2365 171.539 32.1069C171.539 31.9773 171.669 31.8476 171.669 31.718C171.669 31.5884 171.669 31.4588 171.669 31.3292C171.669 31.1996 171.539 31.1996 171.539 31.07C171.409 30.9404 171.28 30.8108 171.15 30.6812C171.021 30.6812 171.021 30.5516 170.891 30.5516C170.761 30.5516 170.502 30.5516 170.372 30.5516C170.502 30.1628 170.502 29.7739 170.372 29.5147C170.372 29.5147 170.372 29.3851 170.502 29.3851C170.632 29.2555 170.632 28.9963 170.632 28.8667C170.632 28.6075 170.632 28.4779 170.502 28.2187C170.502 28.089 170.502 28.089 170.502 27.9594C170.502 27.9594 170.502 27.9594 170.502 27.8298V27.7002C170.502 27.5706 170.632 27.5706 170.632 27.441L170.761 27.3114C171.15 27.0522 171.28 26.6634 171.15 26.2745C171.021 26.1449 171.021 25.8857 170.761 25.8857C170.632 25.7561 170.502 25.7561 170.243 25.7561C170.243 25.6265 170.372 25.3673 170.372 25.2377C170.372 24.8489 170.113 24.5897 169.724 24.4601C169.724 24.4601 169.724 24.4601 169.724 24.3304C169.724 24.2008 169.595 24.2008 169.595 24.0712C169.465 24.0712 169.465 23.9416 169.336 23.9416C169.206 23.812 169.076 23.812 168.947 23.812H168.817C168.817 23.812 168.817 23.6824 168.947 23.6824C169.076 23.5528 169.076 23.4232 169.076 23.2936C169.076 23.164 169.076 23.0344 169.076 22.9048C169.076 22.7752 168.947 22.6456 168.947 22.5159C168.817 22.3863 168.817 22.2567 168.688 22.2567C168.558 22.2567 168.558 22.1271 168.428 22.1271C168.299 21.8679 168.04 21.6087 167.651 21.6087C165.577 21.6087 163.633 21.7383 161.559 21.8679C161.041 21.8679 160.652 22.2567 160.652 22.7752C160.652 23.2936 161.041 23.6824 161.559 23.6824C163.374 23.6824 165.059 23.6824 166.873 23.5528C166.743 23.6824 166.743 23.812 166.743 23.9416C166.743 24.0712 166.743 24.2008 166.743 24.3304C166.743 24.4601 166.743 24.4601 166.873 24.4601C166.484 24.4601 166.225 24.4601 165.836 24.5897C164.54 24.7193 163.374 24.7193 162.078 24.7193C160.911 24.7193 160.782 26.4042 161.818 26.6634H161.689C161.17 26.6634 160.522 27.1818 160.652 27.7002C160.652 28.3483 161.17 28.7371 161.689 28.7371C163.374 28.7371 165.059 28.8667 166.743 28.8667C167.262 28.8667 167.78 28.4779 167.78 27.9594C167.91 27.441 167.521 26.9226 167.003 26.793C166.484 26.6634 166.095 26.6634 165.577 26.5338C166.225 26.5338 166.743 26.5338 167.392 26.4042C167.392 26.4042 167.392 26.4042 167.521 26.5338C167.651 26.6634 167.91 26.6634 168.04 26.6634C168.169 26.6634 168.299 26.6634 168.558 26.6634H168.688C168.817 26.6634 168.947 26.5338 169.076 26.4042C168.947 26.6634 168.817 26.9226 168.688 27.1818C168.428 27.7002 168.428 28.4779 168.817 28.9963C168.817 29.1259 168.817 29.2555 168.947 29.2555C168.688 29.7739 168.817 30.5516 169.465 30.6812C169.336 30.6812 169.336 30.8108 169.206 30.9404C169.076 31.07 169.076 31.1996 169.076 31.3292C169.076 31.4588 169.076 31.5884 169.076 31.718C169.076 31.8476 169.206 31.8476 169.206 31.9773C169.336 32.1069 169.465 32.2365 169.595 32.3661C169.724 32.3661 169.724 32.4957 169.854 32.4957V32.6253V32.7549H169.724C168.428 32.7549 167.132 32.8845 165.836 33.0141C165.318 33.0141 164.67 33.5325 164.799 34.051C164.799 34.5694 165.318 35.2174 165.836 35.0878H165.966C164.929 35.2174 164.022 35.347 162.985 35.347C162.466 35.347 161.948 35.7358 161.948 36.3839C161.948 36.9023 162.466 37.4207 162.985 37.4207C165.188 37.2911 167.521 37.0319 169.595 36.5135C169.465 36.9023 169.465 37.2911 169.465 37.68C169.465 37.9392 169.465 38.328 169.465 38.5872C167.651 38.7168 165.836 39.2352 164.022 39.3648C162.726 39.4945 161.43 39.6241 160.134 39.7537C160.263 36.7727 160.004 33.6621 159.874 30.6812C159.745 28.8667 159.745 27.0522 159.615 25.2377C159.615 24.0712 159.486 23.0344 159.486 21.8679C159.486 21.3495 159.486 20.8311 159.356 20.3126V20.183C159.745 20.183 160.004 20.0534 160.393 20.0534C161.17 19.9238 161.818 19.9238 162.596 19.9238C162.596 20.0534 162.466 20.183 162.596 20.3126C162.596 20.8311 162.985 21.3495 163.633 21.3495C165.318 21.2199 167.132 20.9607 168.817 20.8311C168.947 20.9607 169.076 21.2199 169.206 21.3495C169.336 21.4791 169.336 21.4791 169.465 21.6087L169.595 21.7383C169.595 21.7383 169.595 21.6087 169.465 21.6087L169.595 21.7383V21.8679C169.595 21.9975 169.595 21.9975 169.595 22.1271C169.595 22.2567 169.595 22.2567 169.465 22.3863V22.2567C169.336 22.5159 169.336 22.6456 169.336 22.9048C169.336 23.164 169.595 23.4232 169.724 23.4232C170.243 23.6824 170.761 23.5528 171.021 23.0344C171.409 22.3863 171.409 21.6087 171.28 20.9607C171.28 20.8311 171.28 20.7015 171.15 20.5718C171.021 20.3126 170.891 20.0534 170.761 19.7942C170.632 19.6646 170.632 19.6646 170.502 19.535C170.372 19.4054 170.243 19.4054 170.113 19.2758C169.984 19.7942 169.854 19.7942 169.724 19.6646C169.595 19.6646 169.465 19.6646 169.336 19.6646C169.206 19.4054 168.947 19.1462 168.558 19.1462H168.428C168.428 18.6277 168.169 18.1093 167.392 18.1093C165.707 18.1093 164.151 18.1093 162.466 18.2389C161.689 18.2389 160.782 18.3685 160.004 18.4981C159.615 18.4981 159.097 18.6277 158.578 18.6277C158.319 18.4981 157.93 18.3685 157.671 18.4981C157.541 18.4981 157.412 18.3685 157.282 18.3685C156.375 18.1093 155.338 18.2389 154.82 19.2758C154.431 19.9238 154.949 20.7015 155.597 20.9607C155.468 21.4791 155.468 21.9975 155.468 22.5159C155.468 22.6456 155.338 22.6456 155.338 22.7752C154.82 25.6265 154.82 28.4779 154.431 31.1996C154.042 33.7917 153.524 36.3839 153.005 38.8464C149.895 42.0866 146.784 45.586 143.933 49.0854C143.414 48.4373 142.507 48.1781 141.989 48.9557C133.694 59.1947 125.788 69.8225 117.882 80.3206C114.512 84.8569 111.013 89.2635 107.513 93.7997C107.254 93.9293 107.124 94.0589 106.995 94.1886C104.662 97.2991 102.329 100.41 99.8663 103.52C98.4407 104.946 97.1446 106.372 95.8485 107.797C95.3301 108.316 94.9413 108.834 94.4229 109.353C93.6452 109.612 92.8676 109.871 92.0899 110.13C89.6274 110.778 87.1649 111.426 84.7023 111.945C82.8878 112.334 79.7773 112.593 79.1292 114.666C79.1292 114.796 79.1292 114.926 78.9996 115.055C78.6108 115.963 78.7404 117.129 79.6477 117.777C79.6477 118.425 80.2957 118.943 80.9437 118.684C81.3326 118.555 81.5918 118.425 81.9806 118.295C81.7214 119.721 81.4622 121.147 81.3326 122.572C81.3326 122.832 81.4622 123.22 81.5918 123.35C81.3326 123.609 81.0733 123.998 81.203 124.387C81.4622 125.035 81.851 125.683 82.499 126.072C83.0174 126.461 83.7951 126.59 84.4431 126.59C85.2208 126.461 85.8688 126.201 86.3872 125.683C86.6464 125.424 86.9057 125.035 87.0353 124.646C87.2945 124.646 87.5537 124.646 87.8129 124.517C88.0721 124.646 88.4609 124.776 88.8498 124.776C89.3682 124.776 90.0162 124.646 90.5346 124.517C91.7011 124.257 92.9972 123.739 93.6452 122.702C93.7748 122.572 93.7748 122.443 93.7748 122.184C93.7748 122.184 93.7748 122.184 93.7748 122.313C94.4229 122.961 95.4597 122.961 96.2374 122.572C97.015 122.054 97.4038 121.276 97.5334 120.369C97.663 119.591 97.5334 118.814 97.5334 118.036C97.5334 117.129 97.4038 116.222 97.2742 115.314C97.2742 115.055 97.015 114.796 96.7558 114.666C97.015 114.666 97.2742 114.537 97.5334 114.278C97.663 114.148 97.9222 114.148 98.0518 113.889C111.92 96.1326 126.047 78.3765 141.081 61.5276C143.803 58.4171 146.654 55.3065 149.506 52.1959C150.024 52.7143 150.931 52.844 151.32 51.9367C152.487 49.863 154.82 48.6965 156.634 47.2709C158.319 45.9748 159.356 44.2899 159.745 42.3458C161.17 42.3458 162.596 42.2162 164.022 41.957C165.966 41.6978 168.04 41.5682 169.854 40.9201C170.243 40.7905 170.502 40.4017 170.632 40.0129C170.761 40.0129 171.021 39.8833 171.15 39.7537C171.28 39.4944 171.409 39.2352 171.409 38.976C171.409 38.7168 171.409 38.328 171.409 38.0688C171.409 37.8096 171.539 37.5503 171.539 37.2911C171.669 37.0319 171.539 36.6431 171.409 36.3839C171.28 36.1247 171.021 35.9951 170.761 35.8655C170.632 35.8655 170.502 35.8655 170.372 35.8655C170.372 35.7358 170.372 35.6062 170.372 35.6062C170.372 35.4766 170.243 35.347 170.113 35.2174C170.113 35.2174 170.113 35.2174 170.243 35.2174C170.502 35.2174 170.632 35.2174 170.891 35.0878C171.021 35.0878 171.15 34.9582 171.28 34.9582C171.409 34.8286 171.539 34.8286 171.669 34.699C171.798 34.699 171.798 34.5694 171.798 34.5694C171.798 34.4398 171.928 34.4398 171.928 34.3102C172.057 34.051 172.057 33.7917 172.187 33.5325C172.057 33.2733 172.057 33.1437 172.057 33.0141ZM85.3504 123.869C85.2208 123.998 85.2208 123.998 85.0912 124.128C85.0912 124.128 85.0912 124.128 84.9616 124.128C84.8319 124.128 84.8319 124.257 84.7023 124.257C84.7023 124.257 84.7023 124.257 84.5727 124.257H84.4431C84.3135 124.257 84.1839 124.257 84.0543 124.257C83.9247 124.257 83.9247 124.257 83.7951 124.128C83.6655 124.128 83.6655 123.998 83.5359 123.998C83.5359 123.998 83.5359 123.998 83.4063 123.998L83.2767 123.869L83.1471 123.739C83.4063 123.609 83.6655 123.35 83.6655 123.091C83.9247 121.276 84.3135 119.462 84.4431 117.647C84.7023 117.518 85.0912 117.518 85.3504 117.388C85.3504 118.166 85.3504 119.073 85.3504 119.851C85.3504 121.017 85.3504 122.054 85.48 123.22C85.48 123.35 85.48 123.48 85.6096 123.48C85.48 123.48 85.48 123.609 85.3504 123.869ZM91.1827 122.184H91.0531C90.7939 122.313 90.6643 122.313 90.405 122.313C90.1458 122.313 89.8866 122.443 89.6274 122.443C89.8866 121.276 89.8866 120.11 90.0162 119.073C90.1458 117.907 90.1458 116.87 90.2754 115.703C90.405 115.703 90.5346 115.703 90.6643 115.574C90.5346 116.222 90.5346 116.999 90.5346 117.777C90.5346 118.295 90.5346 118.814 90.5346 119.332C90.5346 119.591 90.5346 119.851 90.5346 120.11C90.6643 120.758 90.6643 121.017 90.7939 121.406C90.9235 121.665 91.1827 121.924 91.4419 122.054C91.3123 122.184 91.3123 122.184 91.1827 122.184ZM93.9044 121.017C93.7748 121.147 93.7748 121.406 93.6452 121.536C93.6452 121.406 93.5156 121.406 93.5156 121.276C93.386 121.147 93.1268 121.017 92.8676 121.017V120.888V120.758V120.628C92.8676 120.369 92.8676 120.24 92.8676 120.11C92.8676 119.851 92.8676 119.591 92.738 119.332C92.738 118.814 92.6084 118.295 92.6084 117.777C92.6084 116.87 92.4788 116.092 92.4788 115.185H92.6084C92.6084 115.833 92.6084 116.481 92.6084 117.259C92.6084 117.777 92.6084 118.295 92.738 118.684C93.1268 119.591 93.1268 120.499 93.9044 121.017ZM95.4597 118.166C95.3301 117.777 95.3301 117.388 95.2005 116.999V116.87C95.2005 116.74 95.2005 116.611 95.2005 116.481C95.2005 116.222 95.2005 115.963 95.2005 115.833C95.2005 115.574 95.2005 115.185 95.2005 114.926C95.4597 114.926 95.7189 114.926 95.8485 114.796C95.5893 114.926 95.4597 115.185 95.4597 115.574C95.4597 116.481 95.4597 117.388 95.4597 118.166ZM127.213 73.1922C125.917 74.7475 124.621 76.3028 123.325 77.8581C124.751 76.0436 126.047 74.2291 127.473 72.4146C127.343 72.6738 127.213 72.933 127.213 73.1922ZM157.153 41.0497C157.153 41.1793 157.023 41.3089 157.153 41.5682C157.023 42.3458 156.764 43.1234 156.245 43.9011C156.116 44.0307 156.116 44.1603 155.986 44.1603C156.634 42.7346 157.023 41.1793 157.282 39.7537C157.282 40.1425 157.282 40.5313 157.153 41.0497Z" fill="#424B5C"/>
</g>
<defs>
<clipPath id="clip0_358_928">
<rect width="290" height="290" fill="white"/>
</clipPath>
</defs>
</svg>
