<svg width="290" height="290" viewBox="0 0 290 290" fill="none" xmlns="http://www.w3.org/2000/svg">
<path d="M172.308 153.239C172.191 153.239 172.074 153.356 171.957 153.356C171.605 153.356 171.371 153.356 171.019 153.473C170.55 153.591 170.081 153.825 169.612 154.06C170.316 149.957 169.729 145.854 166.33 143.041C165.158 141.986 163.751 141.517 162.344 141.399C164.22 135.304 163.751 128.739 161.055 122.878C159.766 119.948 156.132 119.83 153.787 121.472C150.036 118.307 143.003 121.237 144.644 127.098C144.644 127.333 144.761 127.45 144.761 127.684C144.527 126.981 144.175 126.278 143.823 125.574C143.12 124.051 141.713 123.23 140.307 122.995C142.182 120.065 139.134 115.142 135.032 116.079C134.211 116.314 133.39 116.548 132.57 116.9C135.969 114.438 138.079 109.867 139.838 105.764C143.237 97.6754 146.05 88.0631 144.644 79.1542C144.175 75.9892 140.658 75.6375 138.431 77.0442C136.673 77.0442 135.032 77.982 134.68 80.092C134.328 81.9675 133.977 83.7259 133.508 85.4842C133.39 85.6014 133.273 85.7187 133.156 85.8359C129.288 90.5248 125.068 94.9793 121.082 99.551C117.565 103.537 113.228 107.17 112.642 112.563C112.408 114.79 113.58 116.197 115.104 116.9C116.276 119.479 119.206 121.237 121.903 119.244C122.254 119.01 122.606 118.658 123.075 118.307C123.544 118.541 124.013 118.775 124.599 118.893C126.591 119.244 128.35 119.01 129.874 118.424C126.943 120.417 124.716 123.23 122.84 126.278C119.558 130.029 117.096 134.835 115.455 139.758C113.697 138.352 111.587 137.531 109.477 137.531C108.539 136.828 107.367 136.359 106.312 135.89C107.25 135.656 108.07 135.069 108.656 133.897C108.891 133.428 109.008 133.077 109.125 132.608C109.477 132.256 109.946 132.022 110.298 131.67C111.939 131.201 113.58 130.849 114.869 130.029C118.386 127.919 117.8 123.464 114.869 121.237C113.814 120.417 112.642 119.948 111.353 119.596C111.353 117.72 110.415 115.845 108.188 115.376C98.3408 113.149 76.1857 113.5 76.7719 127.567C75.7169 129.208 74.7791 131.084 74.3102 133.311C73.2552 137.531 77.7096 140.931 81.578 138.821C84.1569 137.414 86.7358 136.124 89.4319 134.952C89.1975 135.304 88.963 135.773 88.7286 136.124C85.9152 139.524 83.8052 143.509 82.5158 147.612C80.1713 147.143 77.4752 148.433 77.2407 151.481C77.2407 152.067 77.2407 152.77 77.2407 153.591C72.3174 158.983 74.7791 169.064 77.7096 174.808C81.1091 181.607 87.7908 187.702 95.4103 188.875C99.5131 189.461 103.03 185.006 101.389 181.841C101.389 181.607 101.389 181.372 101.389 181.138C104.319 180.435 106.781 178.676 108.891 176.449C112.29 173.753 114.752 169.767 115.924 165.782C116.276 164.844 116.393 163.789 116.51 162.734C118.972 164.141 122.958 162.734 123.778 159.686C125.536 153.005 125.419 146.44 127.998 139.876C129.288 136.711 130.577 133.077 132.57 130.029C132.922 129.794 133.39 129.56 133.742 129.326C134.445 137.883 134.914 146.792 134.328 155.466C133.742 156.99 133.156 158.514 132.453 159.921C130.225 164.375 127.412 168.595 124.247 172.581C122.02 175.277 119.206 179.38 116.159 181.959C113.697 180.552 109.946 181.841 109.594 185.475C109.477 186.647 109.594 187.585 109.946 188.406C109.946 188.406 109.946 188.406 109.946 188.523C104.202 190.867 99.0442 195.205 99.1614 200.714C98.2236 202.238 97.7547 203.996 97.8719 205.989C98.2236 211.03 103.147 214.429 107.953 212.788C109.711 212.202 110.766 211.03 111.235 209.858C113.463 210.795 116.51 210.326 119.089 209.975C126.591 208.92 134.211 207.63 141.596 205.52C141.948 205.403 142.299 205.286 142.651 205.051C143.823 206.81 146.168 207.982 148.278 207.161C156.835 203.645 161.407 195.205 163.165 186.413C163.751 183.6 163.634 180.552 162.11 178.207C162.931 177.504 163.517 176.566 163.751 175.277C164.22 172.112 164.337 168.83 164.337 165.782C165.158 164.61 165.861 163.32 166.682 162.031C167.502 164.023 169.378 165.43 171.605 166.016C176.059 167.306 182.507 165.665 183.21 160.39C183.913 154.763 176.997 151.715 172.308 153.239ZM126.357 187.351C125.771 187.234 125.302 187.234 124.716 187.116C125.888 186.061 126.943 185.006 127.998 183.834C127.529 185.124 126.943 186.296 126.357 187.351ZM137.493 190.75C137.376 190.633 137.259 190.633 137.142 190.516C137.728 189.461 138.197 188.523 138.783 187.468C138.314 188.64 137.845 189.695 137.493 190.75Z" fill="#FBF4ED"/>
<path d="M179.811 105.764C176.763 105.881 173.832 106.936 170.902 107.757C170.198 107.991 169.612 108.343 169.143 108.812C169.026 108.812 168.909 108.694 168.792 108.694C166.799 107.874 164.455 108.577 163.4 110.453C161.29 113.969 161.29 117.72 162.931 121.354C163.751 123.347 166.565 123.933 168.44 123.113C170.433 122.292 171.488 120.065 171.019 117.955C171.019 117.838 170.902 117.603 170.902 117.369C170.902 117.252 170.902 117.252 170.902 117.017C170.902 116.548 170.902 116.197 170.902 115.728C170.902 115.61 170.902 115.61 170.902 115.493C171.605 115.728 172.426 115.728 173.246 115.61C176.294 115.142 179.225 114.673 182.038 113.383C185.789 111.742 183.796 105.647 179.811 105.764Z" fill="#FBF4ED"/>
<path d="M204.896 95.3309C199.739 93.5726 194.698 96.7376 192.354 101.309C190.361 104.943 193.174 108.577 196.456 108.929C199.739 111.625 204.896 111.859 208.179 108.929C212.75 104.474 210.64 97.3237 204.896 95.3309Z" fill="#FBF4ED"/>
<path d="M232.912 92.4004C229.747 90.7592 225.879 90.4076 222.948 92.5176C222.714 92.752 222.479 92.8693 222.245 93.1037C218.728 92.6348 215.212 93.5726 214.157 97.4409C213.102 101.427 216.149 105.06 219.901 105.764C222.714 106.35 226.113 105.998 228.692 105.06C232.092 103.888 234.202 101.778 235.491 98.4959C236.195 96.2687 234.788 93.4554 232.912 92.4004Z" fill="#FBF4ED"/>
<path d="M242.759 100.84C239.711 102.833 236.312 105.647 235.14 109.28C234.671 110.687 234.671 112.094 235.022 113.5C234.553 113.383 234.085 113.266 233.616 113.266C228.927 113.266 224.355 111.39 219.783 111.273C215.798 111.156 212.984 116.9 216.384 119.596C221.659 123.933 228.81 123.464 234.788 121.12C236.429 120.417 237.367 118.893 237.484 117.369C238.305 118.072 239.36 118.658 240.649 119.01C247.331 120.651 255.419 114.321 258.115 108.694C258.467 108.108 258.584 107.522 258.701 106.819C259.405 105.998 259.874 104.943 259.874 103.888C259.522 94.5104 247.682 97.6754 242.759 100.84Z" fill="#FBF4ED"/>
<path d="M198.918 166.954C197.043 165.782 195.167 164.727 193.291 163.555C189.892 164.141 186.375 166.602 183.679 168.243C179.342 171.057 175.356 174.222 172.074 178.09C169.73 180.904 170.55 184.186 172.543 186.061C172.426 186.647 172.426 187.116 172.309 187.702C171.957 193.681 180.397 194.15 182.273 188.992C184.031 183.951 186.141 180.317 191.181 178.09C192.588 177.387 193.291 176.215 193.526 174.925C193.643 174.808 193.878 174.691 193.995 174.573C195.167 174.808 196.456 174.573 197.511 173.401C199.27 171.643 200.442 170.002 199.973 167.54C199.622 167.423 199.27 167.188 198.918 166.954Z" fill="#FBF4ED"/>
<path d="M234.319 131.084C234.671 130.849 235.257 130.849 235.726 131.084C236.078 131.201 236.429 131.436 236.547 131.904C236.664 132.373 236.664 132.959 236.898 133.428C237.015 133.663 236.898 133.897 236.898 134.132C237.602 133.897 238.422 134.132 238.657 134.952C238.774 135.304 238.774 135.89 238.774 136.359C239.008 136.476 239.125 136.476 239.36 136.711C239.243 136.359 239.008 136.007 238.891 135.656C242.056 136.711 245.807 135.89 247.917 133.194C250.731 129.443 249.91 124.051 245.69 121.823C241.353 119.479 236.898 121.354 233.733 124.519C233.147 124.988 232.795 125.692 232.678 126.395C233.382 127.802 233.733 129.56 234.319 131.084Z" fill="#FBF4ED"/>
<path d="M129.171 138.821C127.998 145.854 125.42 152.418 122.02 158.631C118.386 165.078 113.814 170.705 109.594 176.684C108.891 177.621 110.415 178.794 111.236 177.973C116.042 172.229 120.613 166.016 124.365 159.335C127.881 153.122 130.577 146.323 131.163 139.055C131.046 138 129.288 137.648 129.171 138.821Z" fill="#424B5C"/>
<path d="M173.363 145.502C172.894 145.502 172.543 145.854 172.543 146.323C172.425 148.784 171.957 151.129 171.37 153.591C171.136 154.763 172.777 155.232 173.129 154.06C173.832 151.598 174.184 148.902 174.301 146.323C174.301 145.854 173.832 145.502 173.363 145.502Z" fill="#424B5C"/>
<path d="M225.41 181.841C224.12 180.435 222.245 180.083 220.487 179.497C218.611 178.794 217.204 177.621 215.68 176.332C214.274 175.042 212.867 173.753 211.226 172.698C209.585 171.643 207.475 170.471 205.482 170.119C204.544 170.002 203.841 171.291 204.779 171.76C205.482 172.112 206.185 172.464 206.889 172.815C206.889 172.815 206.889 172.815 206.772 172.815C200.91 177.856 193.76 180.904 187.547 185.358C181.217 189.812 175.473 194.97 169.495 199.894C163.516 204.817 157.186 209.271 150.153 212.905C143.354 216.422 136.086 219.235 128.818 221.58C120.496 224.276 112.056 226.386 103.616 228.613C102.443 228.965 102.912 230.723 104.084 230.489C119.323 226.972 134.562 223.338 148.746 216.539C155.78 213.14 162.344 208.92 168.44 204.114C174.535 199.19 180.396 193.798 186.726 189.109C193.76 183.951 202.083 180.552 208.413 174.574C208.647 174.339 208.764 174.105 208.764 173.87C209.233 174.105 209.585 174.339 210.054 174.691C211.695 175.746 213.102 177.152 214.508 178.442C215.798 179.614 217.204 180.786 218.963 181.49C220.721 182.193 222.597 182.545 224.121 183.6C225.176 184.069 226.113 182.662 225.41 181.841Z" fill="#424B5C"/>
<path d="M189.893 105.648C189.776 105.179 189.542 104.592 189.307 104.123C189.072 103.654 188.721 103.302 188.369 102.95C188.134 102.833 188.017 102.716 187.665 102.716C187.431 102.716 187.196 102.833 186.962 102.95C186.61 103.302 186.61 103.889 186.962 104.24C187.079 104.358 187.079 104.358 187.196 104.475C187.431 104.827 187.665 105.179 187.782 105.53C187.9 105.765 187.9 105.999 188.017 106.117C188.134 106.351 188.252 106.586 188.486 106.703C188.721 106.82 188.955 106.82 189.19 106.82C189.424 106.703 189.659 106.586 189.776 106.351C189.893 106.117 189.893 105.882 189.893 105.648Z" fill="#424B5C"/>
<path d="M213.453 101.895C212.984 100.723 212.398 99.551 211.578 98.3787C211.461 98.1443 211.343 98.0271 211.109 98.0271C210.874 98.0271 210.64 98.0271 210.406 98.1443C210.054 98.3787 209.819 98.9648 210.054 99.3165C210.757 100.372 211.343 101.427 211.812 102.599C211.929 102.716 212.164 102.95 212.281 102.95C212.516 102.95 212.633 102.95 212.867 102.95C213.336 102.833 213.688 102.364 213.453 101.895Z" fill="#424B5C"/>
<path d="M235.022 114.79C234.788 114.438 234.671 114.087 234.436 113.735C234.436 113.735 234.319 113.383 234.319 113.618C234.319 113.5 234.202 113.383 234.202 113.266C234.085 113.032 234.085 112.914 233.968 112.68C233.85 112.328 233.733 111.859 233.616 111.508C233.616 111.273 233.499 111.156 233.499 110.922C233.499 110.804 233.499 110.687 233.499 110.57C233.499 110.453 233.499 110.335 233.499 110.218C233.381 109.749 232.912 109.515 232.444 109.515C231.975 109.632 231.623 109.984 231.623 110.453C231.623 111.39 231.74 112.328 231.975 113.149C232.209 114.087 232.678 114.907 233.264 115.61C233.616 115.962 234.085 116.314 234.554 115.962C235.14 115.845 235.257 115.259 235.022 114.79Z" fill="#424B5C"/>
<path d="M181.803 150.777C181.569 150.777 181.452 150.777 181.217 150.777C181.334 150.777 181.334 150.777 181.452 150.777C181.334 150.777 181.217 150.777 181.1 150.777C180.631 150.66 180.279 150.66 179.928 150.426C179.811 150.426 179.811 150.308 179.693 150.308C179.224 150.074 178.638 150.191 178.404 150.66C178.169 151.129 178.287 151.598 178.756 151.95C179.693 152.536 180.748 152.887 181.803 152.77C182.038 152.77 182.272 152.653 182.507 152.536C182.624 152.418 182.741 152.067 182.741 151.832C182.741 151.129 182.389 150.777 181.803 150.777Z" fill="#424B5C"/>
<path d="M185.789 156.287C185.672 156.17 185.555 156.17 185.555 156.052C185.789 155.818 185.789 155.466 185.672 155.232C185.555 154.997 185.437 154.88 185.203 154.763C185.203 154.763 185.203 154.763 185.203 154.646C185.32 154.528 185.32 154.294 185.32 154.06C185.32 153.591 184.851 153.356 184.5 153.356C183.562 153.356 182.507 153.473 181.569 153.591C181.335 153.591 181.1 153.708 180.983 153.825C180.866 153.942 180.749 154.177 180.749 154.411C180.749 154.88 181.1 155.232 181.569 155.232C181.921 155.232 182.272 155.232 182.507 155.232V155.349C182.741 155.701 182.976 155.935 183.327 156.17C183.327 156.404 183.327 156.638 183.327 156.873C183.445 157.342 183.796 157.693 184.265 157.811C184.5 157.928 184.617 157.928 184.851 157.811C184.969 157.811 184.969 157.811 185.086 157.811C185.32 157.693 185.437 157.693 185.555 157.459C185.672 157.342 185.789 156.99 185.789 156.756C186.024 156.756 186.024 156.521 185.789 156.287Z" fill="#424B5C"/>
<path d="M204.545 167.775C203.959 167.775 203.255 167.775 202.669 167.775C202.552 167.775 202.318 167.775 202.2 167.775H202.083C201.966 167.775 202.083 167.775 202.2 167.775C202.083 167.775 201.966 167.775 201.966 167.775C201.614 167.775 201.263 167.657 201.028 167.54C200.677 167.423 200.208 167.54 199.973 167.892V167.775C199.973 167.657 200.09 167.657 200.09 167.54C200.09 167.423 200.208 167.423 200.208 167.423C200.208 167.423 200.208 167.423 200.325 167.306C201.028 167.306 201.732 167.306 202.435 167.188C202.904 167.071 203.255 166.485 203.138 166.016C203.021 165.43 202.435 165.196 201.966 165.313C201.028 165.43 199.739 165.43 198.918 165.313C198.332 165.196 197.863 165.078 197.277 164.844C196.925 164.727 196.574 164.492 196.105 164.375C196.339 164.375 196.691 164.375 196.925 164.258C197.394 164.141 197.629 163.672 197.629 163.203C197.512 162.734 197.16 162.382 196.691 162.382C196.457 162.382 196.222 162.382 195.988 162.382C195.87 162.265 195.636 162.265 195.519 162.265H195.402C195.519 162.265 195.519 162.265 195.636 162.265C195.402 162.265 195.284 162.265 195.05 162.265C194.815 162.265 194.581 162.265 194.347 162.265L194.464 162.148C194.698 161.679 194.581 161.093 194.112 160.741C192.119 159.452 189.658 158.514 187.313 158.279C186.844 158.279 186.493 158.631 186.493 158.983C186.493 159.452 186.727 159.803 187.079 159.921C188.134 160.155 189.189 160.507 190.244 160.976C190.361 160.976 190.595 161.093 190.83 161.21C190.947 161.21 190.947 161.327 191.064 161.327C189.306 161.679 187.548 162.382 185.907 162.968C184.031 163.672 182.038 164.61 180.28 165.43C177.935 166.602 175.122 168.009 173.129 169.885C172.778 169.298 171.84 169.064 171.488 169.767C170.199 172.463 169.261 175.511 168.675 178.442C168.089 181.372 167.503 184.537 167.854 187.585C167.971 188.64 169.73 189.109 169.847 187.82C170.316 184.889 170.433 181.958 170.902 179.028C171.254 177.035 171.84 175.16 172.309 173.167C172.543 173.167 172.66 173.05 172.778 172.815C173.833 171.408 175.239 170.471 176.763 169.65C178.287 168.712 179.928 167.892 181.569 167.071C183.21 166.251 184.969 165.547 186.727 164.844C188.017 164.375 189.54 163.906 190.83 163.437C190.947 163.437 190.947 163.555 191.064 163.555C191.885 163.789 192.705 163.906 193.526 163.906C193.526 164.375 193.526 164.844 193.878 165.313C194.112 165.782 194.698 165.899 195.05 165.665C195.167 165.665 195.284 165.547 195.284 165.547C196.105 166.133 197.16 166.602 198.215 166.837C198.215 166.954 198.098 167.071 198.098 167.188C197.98 167.775 197.98 168.478 198.332 169.064C198.449 169.298 198.684 169.416 198.918 169.533C199.153 169.533 199.27 169.533 199.504 169.533C199.739 169.416 199.856 169.298 199.973 169.064C200.09 169.181 200.208 169.298 200.442 169.416C201.145 169.65 201.849 169.767 202.669 169.767C203.373 169.885 204.193 169.767 204.897 169.65C205.131 169.65 205.365 169.416 205.483 169.181C205.6 168.947 205.6 168.712 205.6 168.478C205.483 168.126 205.131 167.775 204.545 167.775Z" fill="#424B5C"/>
<path d="M260.46 152.536C260.225 151.95 260.108 151.481 259.991 150.895C259.874 150.426 259.288 150.074 258.819 150.191C258.35 150.308 257.998 150.895 258.115 151.363C257.881 151.012 257.764 150.777 257.529 150.426C257.06 149.605 256.592 148.902 256.24 148.081C256.005 147.612 255.419 147.495 255.068 147.729C254.716 147.847 254.599 148.198 254.482 148.433C253.544 147.729 252.606 146.909 251.668 146.206C250.262 145.151 248.855 144.096 247.448 143.158C247.214 143.041 246.979 143.041 246.862 143.041C245.455 141.868 244.166 140.813 242.877 139.524C243.814 138.469 245.104 138.234 246.393 137.766C247.8 137.179 249.089 136.593 250.144 135.656C252.254 133.897 254.013 131.436 254.482 128.622C254.95 125.926 254.247 123.347 252.606 121.237C251.668 120.065 250.379 119.01 248.972 118.424C252.84 117.017 256.474 115.024 259.874 112.797C263.391 110.453 265.149 106.702 264.563 102.482C263.977 98.2615 261.046 95.0965 256.943 94.0415C251.903 92.752 246.979 94.7448 242.642 97.0893C242.525 97.0893 242.408 97.0893 242.29 97.0893C241.822 97.2065 241.353 97.3237 240.884 97.5582C241.235 95.7998 240.884 94.0415 239.829 92.4004C238.07 89.4698 234.905 88.2976 231.623 87.9459C227.52 87.477 223.3 88.1803 219.315 88.532C215.095 89.0009 210.992 89.4698 206.889 90.1731C198.449 91.5798 190.244 93.5726 182.038 96.0343C174.067 98.4959 166.33 101.895 158.359 104.474C153.904 105.881 149.333 107.053 144.644 107.405C142.768 107.522 140.776 107.639 138.9 107.874C141.831 104.709 143.706 100.723 145.113 96.6204C146.988 90.8765 149.333 83.8431 147.106 77.8647C146.168 75.2858 144.175 72.5897 141.362 71.7692C138.548 70.9486 136.087 72.5897 134.446 74.817C132.57 77.2786 131.046 79.9748 129.17 82.4364C127.178 85.1326 125.068 87.5942 122.84 90.0559C113.463 99.9026 102.209 107.522 89.9009 112.328C86.5014 113.618 83.3364 114.673 80.7575 117.369C78.2958 119.948 76.0686 123.113 73.9586 125.926C69.3869 132.022 65.0497 138.234 61.0641 144.682C56.6096 151.832 52.7413 159.335 48.4041 166.368C44.184 173.05 38.6746 179.262 30.8207 181.49C29.414 181.959 30.0001 184.186 31.4068 183.717C44.8874 180.2 50.983 166.251 57.313 155.349C60.9469 149.019 64.698 142.923 68.8008 136.945C72.9036 130.967 77.0064 124.871 81.8125 119.479C84.2742 116.665 87.4392 115.61 90.8387 114.321C93.652 113.149 96.4654 111.977 99.1615 110.57C104.671 107.639 109.829 104.24 114.752 100.372C119.558 96.5032 124.013 92.1659 127.998 87.3598C129.991 85.0153 131.749 82.5537 133.391 80.092C134.797 77.982 136.438 74.2308 139.486 74.1136C143.237 73.9964 144.996 78.9198 145.347 81.9675C145.699 85.6014 144.878 89.2354 143.823 92.752C142.182 98.6132 139.721 105.06 134.797 109.046C134.446 108.225 133.273 108.225 133.039 109.163C132.453 110.922 130.929 111.977 129.522 113.032C127.998 114.087 126.474 115.142 124.95 116.079C122.372 117.72 119.91 119.244 117.917 121.472C117.8 121.237 117.683 121.12 117.448 120.885C116.862 120.299 116.042 119.83 115.221 119.479C114.4 119.01 113.463 118.307 112.525 118.072C111.47 117.838 110.532 119.127 111.47 119.948C112.642 121.12 114.4 121.472 115.69 122.409C116.979 123.347 115.69 125.106 115.104 126.043C113.814 128.388 112.642 131.084 112.29 133.897C111.822 133.546 111.235 133.077 110.767 132.842C110.298 132.608 109.712 132.725 109.36 133.194C109.125 133.663 109.243 134.249 109.712 134.601C109.946 134.718 110.18 134.835 110.415 135.069C110.532 135.187 110.649 135.187 110.767 135.304L110.884 135.421C111.235 135.773 111.704 136.124 112.056 136.476C112.173 136.593 112.173 136.711 112.29 136.711L112.408 136.828C112.525 137.062 112.759 137.297 112.877 137.414C113.111 137.883 113.463 138.352 113.58 138.821C113.814 139.289 114.635 139.524 114.987 139.172C115.455 138.821 115.573 138.234 115.338 137.766C114.987 136.945 114.518 136.242 113.932 135.538C114.049 135.421 114.049 135.304 114.049 135.187C114.518 133.428 114.869 131.67 115.455 130.029C116.159 128.388 117.097 126.981 117.8 125.34C118.034 124.754 118.152 124.168 118.269 123.582C120.73 121.003 123.895 119.127 126.943 117.252C128.584 116.197 130.108 115.259 131.515 113.969C131.984 113.618 132.453 113.149 132.922 112.68C133.156 112.68 133.273 112.68 133.508 112.563C136.673 110.922 140.189 110.687 143.706 110.453C147.34 110.218 150.974 109.515 154.491 108.577C161.876 106.584 168.909 103.537 176.06 101.075C190.83 95.9171 206.42 92.5176 222.011 91.1109C225.879 90.7593 230.334 90.0559 234.085 91.4626C237.015 92.5176 239.243 95.7998 237.953 98.8476C236.429 99.4337 235.023 100.137 233.499 100.723C230.568 101.895 227.755 103.185 224.824 104.357C219.08 106.702 213.219 108.929 207.358 111.156C207.124 111.273 207.006 111.39 206.889 111.508C201.731 109.515 195.519 108.108 191.064 110.804C191.181 110.687 191.181 110.57 191.181 110.453C191.181 110.335 191.181 110.218 191.181 110.218C191.181 109.984 191.181 109.867 191.064 109.749C191.064 109.749 191.064 109.632 190.947 109.632C190.83 109.515 190.83 109.398 190.712 109.28L190.478 109.163C190.361 109.163 190.361 109.046 190.244 109.046C190.126 109.046 190.126 109.046 190.009 109.046C189.892 109.046 189.775 109.046 189.657 109.163C189.54 109.163 189.54 109.28 189.423 109.28C189.306 109.28 189.306 109.398 189.306 109.398C189.306 109.398 189.189 109.515 189.189 109.632C189.189 109.749 189.071 109.867 189.071 109.984C189.071 109.984 189.071 109.984 189.071 110.101C189.071 110.218 189.071 110.335 189.071 110.335V110.453C189.071 110.57 189.071 110.57 189.189 110.687C189.189 110.687 189.189 110.687 189.189 110.804C189.306 110.922 189.306 111.039 189.423 111.039C189.54 111.156 189.657 111.156 189.775 111.273C189.892 111.273 190.009 111.273 190.126 111.273H190.244C189.775 111.625 189.423 111.977 188.954 112.328C188.485 111.859 188.016 111.508 187.547 110.922C187.547 110.922 187.547 110.922 187.665 111.039C187.547 110.804 187.43 110.687 187.196 110.687C186.961 110.687 186.727 110.687 186.492 110.804C186.258 110.922 186.141 111.156 186.141 111.39C186.141 111.508 186.141 111.625 186.141 111.859C184.5 111.156 182.39 111.273 180.631 111.39C178.521 111.625 176.06 111.859 174.301 113.149C173.832 113.5 173.481 113.852 173.129 114.204C172.895 114.087 172.777 114.087 172.543 113.969C172.308 113.969 172.191 113.852 171.957 113.852C171.722 113.852 171.605 113.852 171.371 113.852C171.253 113.852 171.253 113.852 171.136 113.969C171.019 113.969 170.902 113.852 170.785 113.852C170.55 113.852 170.316 113.852 170.081 113.969C169.847 114.087 169.612 114.321 169.612 114.555C169.495 114.79 169.495 115.142 169.495 115.376C169.495 115.61 169.495 115.728 169.612 115.962C169.612 116.197 169.73 116.314 169.847 116.548C169.964 116.783 170.081 117.017 170.316 117.252C170.433 117.369 170.433 117.369 170.55 117.486C170.667 117.603 170.785 117.603 170.902 117.72C171.019 117.838 171.253 117.838 171.371 117.838H171.253C171.253 117.838 171.253 117.838 171.371 117.838C171.253 118.658 171.253 119.362 171.371 120.182C171.488 120.534 171.488 121.003 171.722 121.472C171.605 121.589 171.488 121.823 171.488 122.058C171.136 121.941 170.667 121.94 170.55 122.409C170.316 122.878 170.081 123.347 169.964 123.699L169.847 123.582C169.73 123.464 169.495 123.464 169.261 123.347C169.026 123.347 168.909 123.23 168.675 123.23C168.44 123.23 168.323 123.23 168.088 123.347C167.854 123.347 167.502 123.464 167.268 123.699C166.916 123.933 166.682 124.168 166.447 124.519C166.33 124.637 166.33 124.871 166.33 124.988H166.213C165.978 124.988 165.861 125.106 165.744 125.223C165.627 125.34 165.51 125.457 165.51 125.574C165.392 125.809 165.51 126.043 165.627 126.278C166.213 126.981 166.799 127.684 167.502 128.271C167.737 128.505 167.971 128.622 168.206 128.622C168.206 128.622 168.206 128.622 168.323 128.622C168.088 129.56 167.854 130.615 167.737 131.553C167.737 131.67 167.737 131.904 167.737 132.022C167.268 130.615 166.447 129.208 165.861 127.802C165.275 126.278 164.689 124.754 163.986 123.23C162.813 120.534 161.172 118.072 158.945 116.197C158.007 115.376 156.601 116.783 157.538 117.603C159.648 119.479 160.938 122.058 162.11 124.637C162.696 126.043 163.282 127.45 163.868 128.974C164.455 130.498 165.041 132.139 166.096 133.311C166.565 133.897 167.502 133.546 167.854 132.959C168.206 135.304 170.198 137.062 172.074 138.586C173.129 139.524 174.301 140.462 175.591 141.282C175.356 141.399 175.239 141.517 175.122 141.751L175.005 141.634C174.887 141.517 174.77 141.517 174.653 141.517C174.536 141.517 174.536 141.517 174.418 141.517C174.301 141.517 174.184 141.517 174.067 141.634C173.95 141.634 173.95 141.751 173.832 141.751C173.715 141.868 173.598 141.986 173.598 142.22C173.598 142.337 173.481 142.572 173.481 142.689C173.481 142.806 173.481 143.041 173.598 143.158C173.598 143.275 173.715 143.392 173.715 143.509C173.715 143.509 173.715 143.627 173.832 143.627C173.95 143.744 174.067 143.861 174.184 143.978C174.418 144.213 174.653 144.33 175.005 144.447V144.564C175.239 146.674 176.177 148.55 177.583 150.074C177.935 150.426 178.638 150.426 178.99 150.074C179.342 149.722 179.342 149.136 178.99 148.667C178.052 147.612 177.349 146.206 176.997 144.682C176.88 144.096 176.88 143.392 176.88 142.923C176.997 142.572 176.997 142.454 177.115 142.22C180.397 144.213 184.031 145.854 187.782 146.557C189.071 146.792 189.657 144.916 188.368 144.447C183.327 143.041 178.521 140.931 174.418 137.648C172.66 136.242 169.73 134.249 169.847 131.67C169.964 128.739 171.136 125.574 172.308 122.996C172.308 122.878 172.308 122.761 172.426 122.644C173.832 122.996 175.005 123.347 176.294 124.051C177.583 124.754 178.756 125.574 180.045 126.278C181.217 127.098 182.507 127.802 183.679 128.505C184.969 129.208 186.375 129.912 187.547 130.849C188.602 131.67 190.009 130.263 189.071 129.326C188.016 128.271 186.727 127.567 185.437 126.864C185.437 126.629 185.437 126.278 185.32 126.161C184.969 125.574 184.5 125.223 183.914 124.754C183.445 124.402 182.859 124.168 182.272 124.168C182.038 124.168 181.803 124.168 181.569 124.285C181.452 124.285 181.335 124.402 181.335 124.519C181.217 124.519 181.217 124.402 181.1 124.402C179.107 123.113 176.88 121.706 174.536 121.12C174.536 120.885 174.536 120.768 174.418 120.534C174.301 120.417 174.301 120.299 174.184 120.299C174.184 120.182 174.067 119.948 174.067 119.713C173.95 119.479 173.95 119.127 173.95 118.775C173.95 118.072 174.067 117.486 174.301 116.783C174.77 115.61 175.591 114.555 176.763 113.969C177.583 113.5 178.521 113.383 179.342 113.149C180.162 113.032 181.1 112.797 181.921 112.68C182.741 112.563 183.562 112.563 184.382 112.563C185.32 112.68 186.024 113.032 186.844 113.383C187.313 113.5 187.782 113.266 187.899 112.914C188.251 113.383 188.72 113.735 189.189 114.087C189.423 114.204 189.657 114.204 189.892 114.204C190.126 114.087 190.361 113.969 190.478 113.735C190.595 113.618 190.595 113.383 190.595 113.266C190.83 113.5 191.064 113.852 191.299 114.087C191.65 114.555 192.119 114.907 192.471 115.259C192.705 115.376 192.94 115.493 193.174 115.493C193.409 115.493 193.643 115.376 193.877 115.259C193.995 115.024 194.112 114.79 194.112 114.555C194.112 114.321 193.995 114.204 193.877 113.969C194.932 114.087 195.753 114.673 196.574 115.259C197.394 115.845 198.097 116.548 198.918 117.252C199.621 117.955 200.442 118.658 201.145 119.362C201.614 119.713 201.966 120.065 202.435 120.417C202.904 120.768 203.372 121.12 203.959 121.237C204.427 121.354 204.779 121.12 205.014 120.885C205.131 121.003 205.248 121.12 205.248 121.237C205.365 121.354 205.482 121.354 205.6 121.472C205.717 121.589 205.834 121.589 205.951 121.589C206.069 121.589 206.186 121.589 206.303 121.472C206.42 121.472 206.537 121.354 206.655 121.237C206.655 121.12 206.772 121.12 206.772 121.003C206.889 120.885 206.889 120.651 206.889 120.534C206.889 120.417 206.889 120.299 206.889 120.299C206.889 120.182 206.772 119.948 206.655 119.83C206.537 119.713 206.537 119.713 206.42 119.596C206.303 119.479 206.303 119.479 206.186 119.362C206.069 119.244 205.951 119.01 205.717 118.893C205.6 118.775 205.482 118.775 205.365 118.658C205.248 118.541 205.131 118.541 205.014 118.541C204.896 118.541 204.896 118.541 204.779 118.541C204.662 118.541 204.545 118.658 204.427 118.658C204.31 118.658 204.31 118.775 204.31 118.775C204.31 118.775 204.31 118.775 204.31 118.893C203.959 118.658 203.724 118.541 203.372 118.307C202.904 117.955 202.552 117.72 202.2 117.369C201.38 116.665 200.559 115.845 199.739 115.142C197.98 113.618 195.987 111.859 193.526 111.977C193.057 111.977 192.705 112.328 192.705 112.68C192.588 112.563 192.588 112.563 192.471 112.445C192.354 112.328 192.119 112.211 192.002 111.977C194.581 110.804 197.629 110.804 200.442 111.39C204.076 112.211 207.592 113.383 210.875 114.907C214.04 116.314 217.439 117.955 220.018 120.299C222.597 122.644 223.652 126.043 224.824 129.091C225.293 130.263 227.169 129.912 226.817 128.505C225.762 124.988 224.355 121.354 221.659 118.775C218.729 115.962 214.626 113.969 210.875 112.328C210.406 112.094 209.937 111.859 209.351 111.742C214.626 109.632 220.018 107.522 225.293 105.529C228.106 104.474 230.92 103.302 233.733 102.247C236.078 101.309 238.422 100.372 240.649 99.1993C240.767 99.1993 241.001 99.1993 241.235 99.0821C245.221 96.9721 249.558 94.9793 254.247 95.5654C258.115 96.0343 261.515 98.6132 261.867 102.716C261.984 104.474 261.749 106.233 260.812 107.757C259.639 109.749 257.647 110.804 255.771 111.859C251.551 114.204 247.331 116.197 242.525 117.486C237.484 118.775 232.209 120.065 227.872 122.996C227.755 123.113 227.638 123.23 227.638 123.347C227.638 123.347 227.638 123.23 227.52 123.23C227.52 123.113 227.403 122.996 227.286 122.996C227.169 122.878 227.051 122.878 226.934 122.761C226.817 122.761 226.817 122.644 226.7 122.644C226.583 122.644 226.465 122.644 226.348 122.644L226.114 122.761C225.996 122.761 225.996 122.878 225.879 122.878C225.762 122.996 225.762 123.113 225.645 123.23C225.528 123.347 225.528 123.464 225.528 123.582V123.699C225.528 123.816 225.528 123.933 225.645 124.051C225.645 124.168 225.762 124.285 225.879 124.402C225.879 124.519 225.879 124.519 225.996 124.637L226.114 124.871C226.231 124.988 226.231 125.106 226.348 125.223L226.465 125.34C227.403 127.802 228.106 130.263 229.044 132.608C229.279 133.077 229.63 133.428 230.216 133.311C230.685 133.194 231.037 132.608 230.92 132.139C230.216 129.56 229.161 127.098 228.106 124.754C228.224 124.754 228.458 124.871 228.693 124.754C231.154 123.699 233.616 122.644 236.195 121.706C238.891 120.768 241.587 120.182 244.283 119.362C244.635 119.244 244.869 119.127 245.221 119.127C246.276 119.479 247.331 119.713 248.269 120.417C249.089 121.003 249.91 121.706 250.496 122.527C251.903 124.519 252.137 126.864 251.317 129.091C250.496 131.436 248.738 133.428 246.745 134.718C245.573 135.421 244.4 135.89 243.228 136.359C242.408 136.711 241.587 137.062 241.001 137.766C239.829 136.359 238.774 134.718 238.07 132.959C237.953 132.725 237.836 132.491 237.602 132.491V132.373C237.484 132.256 237.484 132.139 237.367 132.022C237.367 132.022 237.367 131.904 237.25 131.904C237.015 131.67 236.898 131.67 236.546 131.553C236.429 131.553 236.195 131.436 236.078 131.436C236.078 131.436 236.078 131.318 235.96 131.318V131.201C235.96 131.084 235.96 130.967 235.843 130.967C235.726 130.732 235.726 130.498 235.492 130.263C235.492 130.146 235.374 130.146 235.374 130.029C235.257 129.912 235.257 129.912 235.14 129.794C234.788 129.091 234.436 128.505 233.968 127.802C233.733 127.333 233.147 127.216 232.678 127.45C232.561 127.567 232.561 127.567 232.444 127.684C232.092 126.864 231.858 126.043 231.623 125.223C231.506 124.754 230.92 124.402 230.451 124.519C229.865 124.637 229.63 125.223 229.748 125.692C230.099 127.216 230.568 128.739 231.271 130.146C231.506 130.615 232.092 130.732 232.561 130.615C232.795 130.498 232.913 130.381 233.03 130.146C233.499 131.084 233.85 131.904 234.319 132.725V132.842C234.436 132.959 234.554 133.194 234.671 133.311C234.788 133.428 234.905 133.428 235.14 133.428C235.257 133.428 235.374 133.428 235.492 133.311C235.492 133.546 235.492 133.78 235.492 134.014C235.492 134.132 235.491 134.249 235.609 134.366C235.609 134.483 235.726 134.601 235.843 134.718C235.96 134.718 235.96 134.835 236.078 134.835C236.195 134.952 236.312 134.952 236.429 134.952C236.547 134.952 236.664 134.952 236.664 134.952H236.781C238.422 138.821 241.587 142.103 244.987 144.447C245.338 144.682 245.69 144.682 246.042 144.447C247.214 145.385 248.386 146.323 249.558 147.261C250.965 148.316 252.372 149.488 253.778 150.426C254.013 150.543 254.13 150.543 254.364 150.543C254.482 150.66 254.482 150.777 254.716 150.895C254.833 151.012 255.185 151.012 255.302 151.012C255.771 151.715 256.24 152.418 256.826 153.122C257.06 153.473 257.647 153.473 257.998 153.239C258.115 153.122 258.115 153.122 258.233 153.005C258.467 153.356 258.584 153.825 258.936 154.177C259.17 154.646 259.757 154.763 260.225 154.528C260.694 154.294 260.812 153.708 260.577 153.239C260.812 153.591 260.577 153.122 260.46 152.536ZM168.909 126.629C168.675 126.395 168.44 126.161 168.088 125.926C168.206 125.926 168.323 125.809 168.323 125.692L168.44 125.574C168.557 125.574 168.557 125.457 168.675 125.457H168.792C168.909 125.457 169.026 125.457 169.261 125.457C169.143 125.926 169.026 126.278 168.909 126.629Z" fill="#424B5C"/>
<path d="M271.948 165.782C271.596 164.61 271.244 163.32 270.893 162.148C270.776 161.913 270.658 161.796 270.424 161.679C270.424 161.679 270.424 161.562 270.307 161.562C270.189 161.445 270.072 161.445 270.072 161.327C269.955 161.21 269.838 161.21 269.721 161.21C269.603 161.21 269.369 161.093 269.252 161.093C268.9 161.093 268.548 161.21 268.314 161.327C268.314 161.327 268.197 161.327 268.197 161.445C268.079 161.093 267.962 160.624 267.728 160.272C268.197 160.39 268.9 160.038 268.783 159.335C268.666 158.514 268.197 157.811 267.611 157.225C267.024 156.638 266.321 156.287 265.501 156.052C264.797 155.818 264.211 156.521 264.446 157.107C264.563 157.693 264.914 158.162 265.149 158.748C265.383 159.335 265.618 159.803 265.852 160.39C266.321 161.445 266.673 162.617 267.024 163.672C267.142 164.141 267.611 164.492 268.197 164.375C268.548 164.258 268.666 164.023 268.783 163.789C268.9 163.789 268.9 163.672 269.017 163.672C269.017 163.555 269.134 163.555 269.134 163.437C269.134 163.32 269.134 163.32 269.252 163.203C269.603 164.258 269.955 165.313 270.307 166.368C270.424 166.602 270.541 166.72 270.658 166.954C270.893 167.071 271.127 167.071 271.362 167.071C271.831 166.72 272.065 166.251 271.948 165.782Z" fill="#424B5C"/>
<path d="M273.237 166.251C272.299 166.251 272.299 167.775 273.237 167.775C274.293 167.775 274.293 166.251 273.237 166.251Z" fill="#424B5C"/>
<path d="M277.928 167.658C277.81 167.541 277.576 167.423 277.341 167.423C277.107 167.423 276.872 167.541 276.755 167.658C276.638 167.775 276.52 168.01 276.52 168.244C276.403 167.892 276.286 167.658 276.169 167.306C276.169 167.071 275.934 166.837 275.699 166.72C275.465 166.602 275.23 166.602 274.996 166.602C274.527 166.72 274.175 167.306 274.292 167.775C274.527 168.596 274.761 169.3 275.23 169.886C275.348 170.12 275.582 170.238 275.817 170.355C276.051 170.472 276.286 170.355 276.52 170.238C276.638 170.238 276.638 170.12 276.638 170.12C276.638 170.12 276.638 170.238 276.755 170.238C276.872 170.355 277.107 170.472 277.341 170.472C277.576 170.472 277.81 170.355 277.928 170.238C278.045 170.12 278.162 169.886 278.162 169.651V168.361C278.162 168.01 278.162 167.775 277.928 167.658Z" fill="#424B5C"/>
<path d="M282.146 173.87C281.795 172.698 281.443 171.643 280.974 170.471C280.857 170.002 280.271 169.65 279.802 169.767C279.333 169.885 278.981 170.471 279.098 170.94C279.45 172.112 279.919 173.167 280.271 174.339C280.388 174.573 280.505 174.808 280.74 174.925C280.974 175.042 281.208 175.042 281.443 175.042C281.912 174.925 282.263 174.339 282.146 173.87Z" fill="#424B5C"/>
<path d="M289.883 182.427C288.71 180.435 287.655 178.559 287.069 176.332C286.952 175.863 286.366 175.511 285.897 175.628C285.428 175.746 285.076 176.332 285.194 176.801C285.78 179.145 286.835 181.372 288.241 183.365C288.593 183.834 289.062 183.951 289.531 183.717C290 183.482 290.117 182.896 289.883 182.427Z" fill="#424B5C"/>
<path d="M228.458 186.765C228.341 186.765 228.341 186.765 228.224 186.765H228.106C227.989 186.765 227.872 186.765 227.755 186.647C227.637 186.647 227.52 186.647 227.403 186.647C227.403 186.647 227.403 186.647 227.286 186.647C227.169 186.647 226.934 186.647 226.817 186.53C226.231 186.413 225.645 186.296 224.941 186.179C224.472 186.061 223.886 186.296 223.769 186.882C223.652 187.351 223.886 187.937 224.472 188.054C225.762 188.406 227.051 188.64 228.458 188.64C228.927 188.64 229.396 188.171 229.396 187.702C229.279 187.116 228.927 186.765 228.458 186.765Z" fill="#424B5C"/>
<path d="M231.857 190.281C231.623 190.047 231.506 190.047 231.154 190.047C230.099 189.93 229.044 189.812 227.872 189.812C227.403 189.812 226.817 190.281 226.934 190.75C226.934 191.336 227.403 191.688 227.872 191.688C228.927 191.805 229.982 191.805 231.154 191.805C231.623 191.805 232.092 191.336 232.092 190.867C232.092 190.633 232.092 190.399 231.857 190.281Z" fill="#424B5C"/>
<path d="M233.381 192.743C233.147 192.626 233.03 192.509 232.678 192.509C232.561 192.509 232.561 192.509 232.444 192.509C232.326 192.509 232.092 192.509 231.975 192.391C232.092 192.391 232.209 192.391 232.209 192.391C231.74 192.274 231.271 192.157 230.802 192.04C230.802 192.04 230.802 192.04 230.685 192.04C230.451 191.922 230.216 191.805 229.865 191.922C229.63 192.04 229.396 192.157 229.279 192.391C229.161 192.626 229.044 192.86 229.161 193.212C229.279 193.446 229.396 193.681 229.63 193.798C230.099 194.032 230.568 194.15 231.037 194.267C231.271 194.267 231.623 194.384 231.975 194.384C232.209 194.384 232.561 194.384 232.795 194.267C233.03 194.267 233.264 194.032 233.381 193.798C233.499 193.564 233.499 193.446 233.499 193.212C233.499 193.095 233.499 192.977 233.381 192.743Z" fill="#424B5C"/>
<path d="M241.118 200.245C240.298 198.956 238.774 198.018 237.367 197.549C236.898 197.432 236.312 197.666 236.195 198.135C236.078 198.37 236.078 198.604 236.195 198.839C236.312 199.073 236.429 199.307 236.664 199.425C237.367 199.776 237.953 200.128 238.657 200.597C239.008 200.831 239.36 201.183 239.712 201.535C240.063 201.886 240.649 201.886 241.118 201.652C241.235 201.183 241.353 200.597 241.118 200.245Z" fill="#424B5C"/>
<path d="M244.049 211.147L243.932 211.03C243.932 211.03 243.932 211.03 243.932 210.913C243.932 210.795 243.814 210.795 243.814 210.678C243.697 210.561 243.697 210.444 243.58 210.209C243.58 210.209 243.58 210.092 243.463 210.092C243.463 209.975 243.463 209.975 243.345 209.858C243.345 209.74 243.228 209.506 243.228 209.389C242.994 208.685 242.876 208.099 242.642 207.396C242.29 206.575 241.939 205.872 241.235 205.403C241.118 205.286 240.884 205.169 240.766 205.051C240.766 205.051 240.649 205.051 240.649 204.934C240.884 204.817 241.001 204.583 241.001 204.231C241.001 203.645 240.532 203.293 240.063 203.293C238.774 203.176 238.188 204.817 238.656 205.872C238.891 206.341 239.36 206.693 239.946 207.044C240.063 207.161 240.18 207.161 240.18 207.279C240.18 207.279 240.18 207.279 240.298 207.279C240.415 207.396 240.415 207.396 240.532 207.513C240.649 207.63 240.766 207.865 240.766 207.982C240.766 208.099 240.766 208.099 240.766 207.982V208.099C240.766 208.216 240.884 208.334 240.884 208.451C241.001 208.803 241.118 209.271 241.235 209.623C241.47 210.444 241.821 211.381 242.525 212.085C242.877 212.436 243.463 212.436 243.814 212.202C244.166 212.085 244.4 211.499 244.049 211.147Z" fill="#424B5C"/>
<path d="M245.456 213.843C244.283 213.843 244.283 215.602 245.456 215.602C246.628 215.602 246.628 213.843 245.456 213.843Z" fill="#424B5C"/>
<path d="M231.974 140.11C231.974 139.993 231.857 139.993 231.857 139.876C231.74 139.758 231.623 139.641 231.506 139.524C231.271 139.407 231.037 139.172 230.919 139.055C230.685 138.938 230.451 138.821 230.333 138.586C230.216 138.469 230.099 138.469 229.982 138.469C229.864 138.469 229.747 138.469 229.513 138.469C229.396 138.469 229.278 138.586 229.161 138.703C229.044 138.821 228.927 138.821 228.927 139.055C228.809 139.289 228.692 139.641 228.809 139.876C228.809 139.993 228.927 139.993 228.927 140.11L228.692 140.227C228.575 140.344 228.458 140.462 228.341 140.579V140.696H228.223C227.989 140.813 227.754 140.931 227.637 141.165C227.637 141.282 227.52 141.282 227.52 141.399C227.52 141.634 227.52 141.751 227.52 141.986C227.52 142.103 227.637 142.337 227.637 142.454C227.637 142.572 227.754 142.572 227.754 142.689C227.637 142.689 227.403 142.572 227.286 142.572C227.051 142.454 226.699 142.572 226.465 142.689C226.231 142.806 225.996 143.041 225.996 143.275C225.762 143.392 225.527 143.509 225.41 143.744C225.293 143.978 225.176 144.213 225.293 144.564C225.293 144.682 225.41 144.682 225.41 144.799L225.293 144.916C225.176 145.151 225.058 145.385 225.176 145.737C225.293 145.971 225.293 146.088 225.527 146.206C225.293 146.206 225.176 146.088 224.941 146.088C224.707 146.088 224.355 146.088 224.121 146.206C223.886 146.323 223.769 146.557 223.652 146.792C223.652 147.026 223.652 147.143 223.652 147.378C223.417 147.378 223.3 147.378 223.066 147.495L222.948 147.612C222.362 147.495 221.776 147.378 221.19 147.378C220.721 147.378 220.252 147.73 220.252 148.081C220.135 148.55 220.252 149.019 220.721 149.253C220.956 149.371 221.073 149.371 221.19 149.488C220.838 149.371 220.369 149.371 220.018 149.253C219.549 149.136 219.197 149.253 218.963 149.722C218.728 150.074 218.846 150.426 218.963 150.777C218.611 151.129 218.494 151.715 218.963 152.067C218.846 152.067 218.846 152.067 218.728 152.067C218.611 151.715 218.494 151.481 218.377 151.129C218.259 151.012 218.025 150.777 217.908 150.777C217.673 150.777 217.556 150.777 217.439 150.777C217.204 150.895 216.97 151.129 216.97 151.481C216.618 151.246 216.384 151.129 215.915 151.129C214.977 151.012 214.743 152.418 215.446 152.77C216.032 153.122 216.736 153.473 217.322 153.708C217.322 153.825 217.439 153.825 217.439 153.942C217.556 154.06 217.791 154.177 218.025 154.177C218.142 154.177 218.377 154.06 218.494 154.06C221.307 154.646 224.355 154.177 227.051 153.708C227.52 153.591 227.872 153.005 227.754 152.536C227.754 152.418 227.637 152.418 227.637 152.301V152.184C227.637 152.067 227.637 151.95 227.52 151.832C227.754 151.598 227.989 151.363 227.989 151.012C227.989 150.895 227.989 150.777 227.872 150.66C227.989 150.543 228.223 150.308 228.223 150.191C228.341 149.605 227.989 149.136 227.52 148.902H227.403C227.403 148.785 227.403 148.667 227.403 148.55C227.637 148.55 227.754 148.433 227.872 148.316C227.989 148.198 228.106 147.964 228.106 147.73C228.106 147.378 227.989 147.026 227.754 146.792H227.872C227.989 146.792 228.106 146.674 228.223 146.557C228.341 146.44 228.458 146.44 228.458 146.323C228.458 146.206 228.575 146.206 228.575 146.088C228.575 145.971 228.575 145.854 228.575 145.737C228.575 145.619 228.575 145.62 228.458 145.502C228.458 145.385 228.575 145.151 228.458 145.033H228.575C228.692 145.033 228.809 144.916 228.927 144.799C228.927 144.682 229.044 144.682 229.044 144.564C229.161 144.447 229.161 144.33 229.161 144.213C229.161 144.096 229.161 144.096 229.161 143.978C229.278 143.978 229.278 143.978 229.396 143.978C229.513 143.978 229.63 143.978 229.747 143.861C229.864 143.861 229.982 143.744 230.099 143.627C230.099 143.509 230.216 143.509 230.216 143.392C230.333 143.275 230.333 143.158 230.333 143.041C230.333 143.041 230.333 143.041 230.333 142.923C230.451 142.923 230.451 142.806 230.568 142.806C230.685 142.689 230.685 142.572 230.802 142.454C230.802 142.337 230.919 142.337 230.919 142.22C230.919 142.103 230.919 141.986 230.919 141.868C230.919 141.751 230.802 141.751 230.802 141.634L230.685 141.517C230.919 141.634 231.154 141.634 231.388 141.634C231.506 141.634 231.623 141.517 231.74 141.399C231.857 141.282 231.974 141.282 231.974 141.165C231.974 140.579 232.092 140.344 231.974 140.11Z" fill="#424B5C"/>
<path d="M219.08 155.818C219.197 155.701 219.315 155.701 219.549 155.583C220.018 155.349 220.135 154.88 219.901 154.411C219.666 153.942 219.315 153.825 218.846 153.825H218.728H218.611C218.494 153.825 218.377 153.825 218.377 153.825C218.26 153.825 218.025 153.942 217.908 153.942C217.439 154.06 217.087 154.294 216.736 154.411C216.032 154.763 215.329 155.232 214.743 155.818C214.391 156.17 214.391 156.638 214.626 157.107C214.743 157.225 214.743 157.225 214.86 157.342C214.508 157.811 214.157 158.28 214.04 158.866C213.922 159.217 214.04 159.686 214.391 159.921C214.391 160.39 214.626 160.741 214.977 160.976C215.212 161.093 215.446 161.093 215.681 161.21L215.798 161.327C215.915 161.445 216.032 161.562 216.15 161.679C216.267 161.679 216.267 161.679 216.384 161.796C216.384 161.913 216.267 161.913 216.267 162.031C216.15 162.148 216.15 162.382 216.032 162.5C216.032 162.617 215.915 162.617 215.915 162.734C215.915 162.851 215.915 162.851 215.798 162.968C215.798 163.086 215.798 163.203 215.798 163.32C215.798 163.437 215.798 163.555 215.915 163.672C216.032 163.789 216.032 163.906 216.15 163.906C216.267 164.023 216.384 164.023 216.501 164.023C216.618 164.023 216.618 164.023 216.736 164.023C216.853 164.023 217.087 164.023 217.205 163.906L217.439 163.789C217.556 163.672 217.673 163.555 217.673 163.32C217.673 163.203 217.791 163.203 217.791 163.086C217.791 162.968 217.791 162.968 217.908 162.851C217.908 162.734 218.025 162.5 218.025 162.382C218.025 162.265 218.025 162.148 218.025 162.031C218.025 161.913 218.025 161.796 217.908 161.679C218.025 161.562 218.025 161.445 218.142 161.327C218.142 161.21 218.26 161.21 218.26 161.093C218.26 160.976 218.26 160.858 218.26 160.741C218.26 160.624 218.142 160.624 218.142 160.507C218.025 160.39 217.908 160.272 217.791 160.155C217.673 160.155 217.673 160.038 217.556 160.038C217.556 159.803 217.556 159.686 217.556 159.452C217.791 159.335 218.025 159.1 218.26 158.983C218.494 158.866 218.611 158.631 218.728 158.397C218.846 158.162 218.728 157.811 218.611 157.693C218.611 157.576 218.494 157.576 218.494 157.459H218.611C218.728 157.459 218.846 157.459 218.963 157.459C219.432 157.459 219.901 156.99 219.901 156.521C219.901 156.052 219.549 155.583 218.963 155.583C218.846 155.583 218.728 155.583 218.494 155.583C218.611 155.583 218.611 155.583 218.728 155.466C218.728 155.935 218.846 155.935 219.08 155.818Z" fill="#424B5C"/>
<path d="M231.506 161.562C231.271 161.21 230.685 161.093 230.216 161.327C229.396 161.913 228.458 162.382 227.52 162.851C227.286 162.968 227.051 163.203 227.051 163.437C226.934 163.672 227.051 164.023 227.169 164.258C227.286 164.492 227.52 164.727 227.755 164.727C227.872 164.727 227.989 164.727 227.989 164.727C228.224 164.727 228.341 164.727 228.575 164.61C229.63 164.141 230.568 163.555 231.389 162.734C231.74 162.5 231.74 161.913 231.506 161.562Z" fill="#424B5C"/>
<path d="M231.74 152.77C231.858 152.653 231.975 152.653 231.975 152.536C232.209 152.418 232.326 152.184 232.444 151.949C232.444 151.832 232.444 151.715 232.444 151.598C232.444 151.481 232.444 151.363 232.326 151.246C232.209 151.012 231.975 150.894 231.74 150.777C231.623 150.777 231.506 150.777 231.506 150.777C231.271 150.777 231.154 150.777 231.037 150.894C230.685 151.012 230.334 151.246 230.099 151.481C229.865 151.715 229.513 152.067 229.396 152.301C229.279 152.418 229.279 152.536 229.279 152.653C229.279 152.77 229.279 152.887 229.279 153.122C229.279 153.239 229.396 153.356 229.513 153.473C229.63 153.591 229.63 153.591 229.748 153.708H229.513C229.396 153.708 229.161 153.708 229.044 153.825L228.341 154.059C228.224 154.177 228.106 154.177 228.106 154.294C227.989 154.411 227.989 154.528 227.872 154.646C227.872 154.763 227.872 154.88 227.872 154.997C227.872 155.115 227.872 155.232 227.989 155.349C227.989 155.466 228.106 155.466 228.106 155.583C228.224 155.701 228.341 155.818 228.575 155.818C228.693 155.818 228.81 155.818 228.81 155.818C229.044 155.818 229.161 155.818 229.279 155.701L229.513 155.583C229.513 155.701 229.396 155.701 229.396 155.818C229.279 155.935 229.279 156.052 229.279 156.17C229.279 156.287 229.279 156.404 229.396 156.521C229.396 156.638 229.513 156.756 229.63 156.873C229.748 156.873 229.748 156.99 229.865 156.99C229.982 156.99 229.982 157.107 230.099 157.107C229.982 157.225 229.865 157.225 229.748 157.342C229.513 157.459 229.279 157.693 229.044 157.811C228.927 157.928 228.81 157.928 228.81 158.045C228.693 158.162 228.693 158.28 228.575 158.397C228.575 158.514 228.575 158.631 228.575 158.748C228.575 158.866 228.575 158.983 228.693 159.1C228.458 159.217 228.224 159.335 228.106 159.452C227.638 159.686 227.403 160.39 227.755 160.858C228.106 161.327 228.693 161.562 229.161 161.21C230.099 160.624 231.037 160.155 231.858 159.569C232.092 159.452 232.209 159.217 232.326 158.983C232.444 158.748 232.326 158.397 232.209 158.28C232.092 158.045 231.975 158.045 231.74 157.928C231.74 157.811 231.858 157.693 231.858 157.576C231.858 157.459 231.858 157.459 231.858 157.342C231.858 157.225 231.74 157.107 231.74 156.99C231.74 156.873 231.623 156.873 231.506 156.756C231.389 156.638 231.271 156.638 231.154 156.638C231.271 156.521 231.271 156.521 231.389 156.404C231.389 156.287 231.506 156.287 231.506 156.17C231.506 156.052 231.506 155.935 231.506 155.818C231.506 155.701 231.506 155.583 231.389 155.583C231.389 155.466 231.271 155.349 231.154 155.232C231.037 155.232 231.037 155.115 230.92 155.115C230.803 155.115 230.803 154.997 230.685 154.997C230.568 154.997 230.451 154.997 230.334 154.997C230.216 154.997 230.216 154.997 230.099 155.115C230.216 154.997 230.216 154.997 230.216 154.88C230.216 154.763 230.216 154.646 230.216 154.528C230.216 154.411 230.216 154.294 230.099 154.177C230.099 154.059 229.982 154.06 229.982 153.942C229.865 153.825 229.748 153.825 229.748 153.825C229.982 153.942 230.216 153.942 230.451 153.942C230.568 153.942 230.568 153.825 230.685 153.825C230.803 153.708 230.92 153.591 231.037 153.473C231.271 153.239 231.506 153.004 231.74 152.77Z" fill="#424B5C"/>
<path d="M265.383 160.858C265.266 160.507 265.266 160.155 265.149 159.921C265.031 159.569 265.031 159.217 264.914 158.983C264.914 158.748 264.68 158.514 264.445 158.397C264.211 158.279 263.976 158.279 263.742 158.279C263.508 158.279 263.39 158.397 263.273 158.631C263.156 158.631 263.156 158.631 263.039 158.631C262.921 158.631 262.804 158.631 262.687 158.748C262.335 158.162 261.866 157.693 261.398 157.224C261.046 156.873 260.46 156.873 260.108 157.224C259.991 157.342 259.991 157.459 259.874 157.576C259.756 157.576 259.639 157.576 259.405 157.693C259.288 157.811 259.17 157.928 259.053 158.045C258.936 157.928 258.819 157.928 258.701 157.811C258.584 157.811 258.467 157.693 258.35 157.693C257.412 156.287 256.357 155.114 255.068 153.942C254.716 153.591 254.13 153.591 253.778 153.942C253.661 154.059 253.544 154.294 253.544 154.411L253.426 154.294C253.192 153.942 252.606 153.708 252.137 153.942C251.785 154.177 251.551 154.763 251.785 155.232C252.254 155.935 252.723 156.638 253.309 157.224C252.254 156.521 251.199 155.701 250.144 154.88C249.792 154.646 249.206 154.763 248.972 155.114C248.737 155.466 248.737 156.052 249.089 156.287C249.206 156.404 249.441 156.521 249.558 156.638C248.972 156.287 248.386 156.052 247.682 155.701C247.214 155.466 246.627 155.583 246.393 156.052C246.159 156.521 246.276 157.107 246.745 157.342C247.448 157.693 248.034 158.045 248.737 158.397C247.917 158.162 247.096 157.928 246.276 157.811C244.869 157.576 243.58 157.576 242.407 158.514C241.704 159.1 242.642 160.507 243.462 159.921C244.283 159.334 245.572 159.686 246.393 159.803C247.448 160.038 248.62 160.389 249.558 160.858C251.551 161.796 253.309 163.32 254.95 164.844C255.654 165.547 257.06 164.61 256.474 163.672C256.357 163.555 256.24 163.437 256.24 163.32C256.357 163.437 256.474 163.554 256.591 163.554C257.529 164.258 258.584 162.734 257.764 162.031C257.764 162.031 257.764 162.031 257.646 161.913C258.115 161.796 258.35 161.444 258.35 160.976L258.467 160.858C258.584 161.093 258.701 161.327 258.819 161.444C258.936 161.679 259.17 161.796 259.405 161.913C259.639 162.031 259.991 161.913 260.108 161.796C260.343 161.679 260.46 161.562 260.46 161.327C260.694 161.679 260.929 162.031 261.163 162.499C261.398 162.851 261.984 163.086 262.453 162.851L262.57 162.734C262.804 162.968 263.156 162.968 263.39 162.968C263.742 162.851 264.094 162.499 264.094 162.031C264.211 162.031 264.445 162.031 264.563 162.031C264.797 161.913 265.031 161.796 265.149 161.562C265.383 161.327 265.5 161.093 265.383 160.858Z" fill="#424B5C"/>
<path d="M274.175 179.966C271.948 176.215 269.017 172.932 265.969 170.002C265.149 169.298 263.977 170.471 264.797 171.174C266.907 173.167 268.665 175.394 270.307 177.739C269.955 177.27 269.486 176.801 269.134 176.332C267.962 174.925 266.673 173.636 265.266 172.346C264.914 172.112 264.563 171.995 264.328 172.112C264.211 172.112 264.211 171.995 264.094 171.995C263.625 171.877 263.156 172.112 262.922 172.581C262.804 173.167 262.922 173.636 263.156 174.105C263.039 174.105 262.922 174.222 262.804 174.339C262.453 174.691 262.453 175.394 262.804 175.746C263.742 176.684 264.68 177.739 265.5 178.794C264.797 177.973 263.977 177.27 263.273 176.449C262.922 176.097 262.218 175.98 261.749 176.449C261.398 176.801 261.398 177.387 261.749 177.856C261.398 177.973 261.046 178.207 260.929 178.676C260.812 179.028 260.812 179.38 260.929 179.731C260.929 179.849 261.046 179.849 261.046 179.966C260.929 179.966 260.694 180.083 260.577 180.2C260.46 180.317 260.46 180.435 260.343 180.435C260.108 180.317 259.874 180.317 259.639 180.317C259.405 180.435 259.17 180.552 259.053 180.786C258.936 181.021 258.819 181.372 258.936 181.607C258.936 181.724 259.053 181.959 259.17 182.076C259.053 182.076 259.053 181.959 258.936 181.959C258.702 181.841 258.35 181.959 258.115 182.076C257.998 182.076 257.998 182.193 257.881 182.193C257.881 182.193 257.881 182.193 257.881 182.31C257.764 182.31 257.764 182.193 257.647 182.193C257.529 182.193 257.412 182.193 257.295 182.193H257.178C257.06 182.193 256.943 182.193 256.826 182.193C256.709 182.193 256.592 182.31 256.474 182.31C256.357 182.31 256.357 182.427 256.24 182.545C256.123 182.662 256.123 182.662 256.005 182.779C256.005 182.896 255.888 182.896 255.888 183.014C255.888 183.131 255.888 183.248 255.888 183.248C255.888 183.248 255.888 183.248 255.888 183.365C255.888 183.482 255.888 183.6 256.005 183.717C256.005 183.834 256.123 183.951 256.24 184.069C256.357 184.186 256.474 184.186 256.592 184.303C256.709 184.42 256.826 184.42 256.943 184.42C257.06 184.42 257.178 184.42 257.178 184.42C257.295 184.42 257.529 184.303 257.647 184.186C257.764 184.186 257.764 184.186 257.881 184.186C257.881 184.303 257.998 184.42 257.998 184.537C257.998 184.655 258.115 184.655 258.115 184.772C258.233 184.889 258.35 185.006 258.467 185.124C258.584 185.241 258.702 185.358 258.819 185.475C258.936 185.592 259.053 185.592 259.17 185.592C259.288 185.592 259.405 185.592 259.522 185.592C259.639 185.592 259.639 185.475 259.757 185.475C259.874 185.358 259.991 185.358 259.991 185.241C260.108 185.124 260.225 184.889 260.225 184.655C260.225 184.42 260.108 184.069 259.874 183.951C259.874 183.834 259.757 183.834 259.757 183.717V183.6V183.482C259.757 183.482 259.757 183.6 259.874 183.6C259.991 183.834 260.108 184.069 260.343 184.303C260.46 184.537 260.577 184.655 260.694 184.772C260.812 184.889 261.046 185.006 261.163 185.241C261.28 185.241 261.28 185.358 261.398 185.358C261.515 185.358 261.632 185.358 261.749 185.358C261.984 185.358 262.218 185.241 262.335 185.124C262.57 184.772 262.687 184.42 262.57 184.069L262.687 184.186C262.922 184.537 263.273 184.889 263.625 185.006C263.977 185.124 264.328 185.241 264.68 184.889L264.797 184.772C264.914 184.772 264.914 184.889 265.032 184.889C265.383 185.006 265.735 184.889 265.969 184.655C266.204 184.42 266.321 184.069 266.204 183.717C265.969 183.131 265.5 182.662 265.032 182.193C264.68 181.724 264.328 181.372 263.977 180.904L263.859 180.786C263.742 180.669 263.742 180.552 263.625 180.435C263.508 180.2 263.273 179.966 263.156 179.849C263.039 179.731 263.039 179.614 262.922 179.497C263.39 180.083 263.977 180.552 264.445 181.138C264.914 181.607 265.266 182.076 265.735 182.545C266.204 183.014 266.555 183.6 267.142 184.069C267.493 184.42 267.962 184.42 268.431 184.186C268.548 184.069 268.665 183.834 268.783 183.717C269.486 184.069 270.424 183.365 270.189 182.545C270.189 182.427 270.189 182.427 270.072 182.31H270.189C270.424 182.31 270.658 182.193 270.775 182.076L270.893 182.193C271.244 182.545 271.83 182.545 272.299 182.31C272.651 182.076 272.768 181.607 272.651 181.255C273.354 181.959 274.878 181.021 274.175 179.966Z" fill="#424B5C"/>
<path d="M271.244 200.48C270.541 199.542 269.603 198.956 268.548 198.487C268.548 198.37 268.431 198.135 268.314 198.018C266.204 196.025 263.391 194.853 260.577 194.15C260.343 194.15 260.108 194.15 259.874 194.267C258.702 193.681 257.647 195.322 258.819 196.143C259.171 196.377 259.522 196.494 259.757 196.729C259.171 196.611 258.702 196.377 258.116 196.26C257.178 196.025 256.357 197.08 256.826 197.901C255.888 197.901 255.419 199.19 256.24 199.776C256.123 199.776 255.888 199.894 255.771 200.011C255.537 200.363 255.537 200.831 255.888 201.183C256.123 201.418 256.357 201.535 256.592 201.652C256.123 201.535 255.654 201.535 255.185 201.652C254.716 201.769 254.482 202.238 254.482 202.707C254.364 202.707 254.364 202.824 254.247 202.824C253.896 203.293 253.896 203.879 254.247 204.231C254.482 204.465 254.716 204.7 254.95 204.817C254.95 204.817 254.95 204.817 254.95 204.934C254.716 204.934 254.482 205.051 254.364 205.169C254.013 205.52 254.013 206.106 254.247 206.575C253.896 206.81 253.778 207.161 253.778 207.513C253.661 207.63 253.544 207.748 253.427 207.982C253.427 208.099 253.427 208.099 253.427 208.216C253.427 208.334 253.427 208.334 253.427 208.451C253.309 208.451 253.192 208.568 253.075 208.685C252.841 208.92 252.723 209.154 252.723 209.389V209.623C252.372 209.506 251.903 209.623 251.668 209.858C251.434 210.209 251.317 210.561 251.434 210.913C251.434 210.913 251.317 210.913 251.317 211.03C251.199 211.264 251.082 211.499 251.199 211.733C251.082 211.85 251.082 211.968 251.082 212.085C250.965 212.319 251.082 212.554 251.199 212.905C251.317 213.14 251.551 213.491 251.668 213.726H251.551C251.317 213.843 251.082 213.96 251.082 214.195C250.965 214.312 250.965 214.429 250.965 214.546C250.965 214.664 250.965 214.898 251.082 215.015C251.199 215.25 251.317 215.484 251.317 215.719L251.199 215.836C251.082 215.953 251.082 216.188 251.082 216.305C251.082 216.656 251.082 217.008 251.199 217.36C251.317 217.711 251.434 217.946 251.551 218.18C251.434 218.18 251.317 218.298 251.199 218.415C251.082 218.532 250.965 218.649 250.965 218.884C250.965 218.884 250.965 218.766 250.848 218.766C250.73 218.649 250.613 218.532 250.379 218.532L250.496 218.415C250.613 218.298 250.73 218.063 250.73 217.829C250.73 217.711 250.73 217.594 250.73 217.594C250.73 217.477 250.613 217.243 250.496 217.125C249.793 216.188 248.503 216.07 247.331 216.305C247.097 216.422 246.862 216.539 246.628 216.774C246.51 217.008 246.393 217.36 246.51 217.594C246.628 217.829 246.745 218.063 246.979 218.298C247.214 218.415 247.448 218.415 247.8 218.415C247.917 218.415 248.152 218.415 248.269 218.415C248.503 218.415 248.62 218.532 248.855 218.532C248.972 218.532 249.089 218.649 249.207 218.649C249.324 218.649 249.324 218.766 249.441 218.766C249.324 218.884 249.089 219.235 249.207 219.47C249.324 220.056 249.441 220.642 249.558 221.228C249.793 221.814 250.027 222.283 250.262 222.869C250.496 223.221 251.082 223.455 251.434 223.221C251.903 222.987 251.903 222.518 251.785 222.049C251.785 222.049 251.785 221.931 251.668 221.931C251.551 221.697 251.434 221.345 251.434 221.111C251.551 221.111 251.668 221.228 251.785 221.228C251.903 221.228 251.903 221.228 252.02 221.228C252.137 221.228 252.254 221.111 252.372 220.994C252.372 220.876 252.489 220.876 252.489 220.759C252.606 220.642 252.606 220.408 252.606 220.29C252.606 220.173 252.606 219.939 252.606 219.821V219.353C252.606 219.235 252.606 219.118 252.489 219.001C252.489 219.001 252.489 219.001 252.489 218.884H252.606C252.84 218.766 252.958 218.532 253.075 218.298C253.075 218.18 253.075 218.18 253.075 218.063C253.075 217.946 253.075 217.711 252.958 217.594C252.958 217.711 252.958 217.711 253.075 217.829C253.075 217.711 252.958 217.594 252.958 217.594C253.309 217.36 253.427 217.008 253.309 216.656C253.192 216.422 253.192 216.188 253.075 215.836C253.192 215.836 253.309 215.836 253.427 215.719C253.544 215.719 253.544 215.601 253.661 215.484H253.778C254.013 215.484 254.247 215.367 254.482 215.25C254.833 214.898 254.833 214.312 254.482 213.96C254.599 213.96 254.716 213.96 254.833 213.96C255.068 213.843 255.185 213.726 255.302 213.609C255.419 213.491 255.537 213.257 255.537 213.023C255.537 212.905 255.537 212.671 255.419 212.554C255.537 212.554 255.537 212.554 255.654 212.436C256.006 212.202 256.123 211.616 255.888 211.264C255.888 211.147 255.771 211.147 255.771 211.03C255.888 211.03 256.006 211.03 256.123 211.03C256.24 211.03 256.24 211.03 256.357 210.913C256.474 210.913 256.592 211.03 256.709 211.03C257.178 211.147 257.764 210.913 257.881 210.444C258.116 209.975 257.881 209.506 257.529 209.271C257.764 209.389 257.881 209.389 258.116 209.389C258.35 209.389 258.702 209.389 258.936 209.271C259.171 209.154 259.288 209.037 259.405 208.803C259.522 208.451 259.522 208.099 259.288 207.748C259.522 207.748 259.757 207.865 260.108 207.865C261.046 207.865 261.515 206.575 260.694 205.989C260.694 205.872 260.694 205.872 260.577 205.755C260.929 205.638 261.281 205.403 261.398 205.051C261.398 204.934 261.398 204.7 261.398 204.583C261.984 204.934 262.687 204.817 263.273 204.348C263.742 203.879 263.625 203.176 263.156 202.824C263.273 202.707 263.391 202.59 263.391 202.355H263.508C264.094 202.473 264.563 202.238 264.797 201.652C264.914 201.418 264.914 201.066 264.797 200.714C266.438 201.183 267.962 201.769 269.603 202.238C270.776 202.59 271.831 201.418 271.244 200.48Z" fill="#424B5C"/>
<path d="M280.505 189.461C280.387 189.226 280.153 189.109 280.036 188.992C280.387 188.054 279.215 187.234 278.395 187.82C277.809 187.585 277.34 187.351 276.754 187.234C276.402 187.234 276.167 187.234 275.933 187.351C275.699 187.234 275.464 187.116 275.23 186.882C274.175 186.061 273.002 187.82 273.823 188.64C273.94 188.757 273.94 188.757 274.057 188.757C274.175 188.875 274.292 188.992 274.409 188.992C273.471 188.64 272.534 188.171 271.596 187.702C270.541 187.116 269.251 188.523 270.306 189.461L270.423 189.578C270.189 189.461 269.955 189.461 269.603 189.344C268.548 189.109 267.61 188.757 266.672 189.226C266.086 189.109 265.5 188.992 264.914 189.109C264.093 189.226 263.625 189.93 263.625 190.633C262.921 190.399 262.218 190.164 261.515 189.93C260.928 189.812 260.342 190.281 260.225 190.867C260.108 190.867 259.991 190.75 259.873 190.75C258.701 190.164 257.763 191.805 258.936 192.391C260.811 193.446 262.804 194.384 264.797 195.322C265.735 195.791 266.79 196.142 267.845 196.611C268.9 197.08 269.837 197.549 271.01 197.666C271.479 197.784 272.065 197.549 272.299 197.08C272.299 196.963 272.299 196.846 272.416 196.729C272.768 196.846 273.002 196.963 273.354 196.963C273.823 197.08 274.175 196.846 274.409 196.611C274.644 196.611 274.761 196.729 274.995 196.729C276.402 196.963 276.871 195.087 275.581 194.619C273.589 193.915 271.361 193.446 269.251 192.86C269.134 192.86 269.134 192.86 269.017 192.743C268.665 192.626 268.313 192.391 267.845 192.274C267.258 192.04 266.672 191.688 265.969 191.454C265.969 191.336 266.086 191.336 266.086 191.219H266.203C266.438 191.219 266.672 191.336 266.907 191.336C267.024 191.336 267.024 191.336 267.141 191.336C267.376 191.454 267.493 191.454 267.727 191.454C268.079 191.571 268.431 191.571 268.665 191.688C269.72 192.04 270.892 192.274 271.947 192.626C273.002 192.977 274.057 193.329 275.112 193.798C276.167 194.267 277.222 194.853 278.395 195.205C279.45 195.556 280.036 194.384 279.567 193.564C279.919 193.212 280.036 192.626 279.801 192.157C280.036 192.04 280.27 191.805 280.505 191.571C280.739 191.219 280.739 190.75 280.505 190.516C280.856 190.633 280.856 190.047 280.505 189.461Z" fill="#424B5C"/>
<path d="M215.871 13.5145C212.221 8.26394 205.195 7.0871 199.355 8.62605C191.325 10.7987 185.486 18.0408 181.014 24.5587C180.923 24.6493 180.923 24.8303 180.923 24.9208C178.459 21.9335 175.631 19.3082 172.437 17.1356C169.061 14.7819 165.137 12.6997 161.031 11.7945C157.29 10.9797 153.549 11.5229 150.355 13.6955C147.435 15.6871 145.336 18.584 144.241 21.8429C142.964 25.5545 143.146 29.4472 144.333 33.1588C144.333 33.3398 144.333 33.6114 144.424 33.7925C144.424 34.064 144.606 34.3356 144.789 34.4261C146.066 37.6851 147.983 40.6725 150.264 43.2072C156.195 49.6346 164.225 53.3462 171.89 57.3294C174.08 58.5062 176.269 59.6831 178.459 61.041C180.558 62.3083 182.474 63.9378 184.664 65.2052C184.847 65.2957 185.029 65.3862 185.212 65.4768C185.577 65.9294 186.033 66.4726 186.489 66.9252C186.489 67.2873 186.672 67.5589 187.128 67.6494H187.219C188.405 68.7357 189.957 69.641 191.69 69.2789C192.694 69.0978 193.424 68.3736 194.154 67.6494C194.975 66.8347 195.705 66.0199 196.344 65.2052C197.256 64.1189 198.078 62.942 198.808 61.7652C200.815 59.5925 202.549 57.3294 204.283 54.9757C209.027 48.5483 212.769 41.4872 215.506 33.9735C217.879 27.6366 220.068 19.5798 215.871 13.5145ZM158.111 14.5103C158.02 14.6008 157.929 14.6913 157.837 14.8724C157.655 15.325 157.472 15.6871 157.29 16.1398C157.381 15.4155 157.564 14.6008 157.746 13.8766C157.837 13.605 157.746 13.424 157.655 13.2429C157.837 13.2429 158.02 13.2429 158.111 13.2429C158.02 13.424 158.02 13.605 158.02 13.7861C158.02 13.9671 158.02 14.0576 158.02 14.2387C158.111 14.3292 158.111 14.4198 158.111 14.5103ZM172.62 26.2787C172.893 27.5461 173.167 28.8135 173.35 30.1714C173.441 30.8051 173.532 31.5293 173.715 32.163C173.623 32.2535 173.532 32.2535 173.532 32.344C173.532 31.4388 173.35 30.5335 173.258 29.6282C173.076 28.2703 172.893 27.003 172.62 25.7356C172.528 25.9166 172.528 26.0977 172.62 26.2787ZM163.495 15.144C163.221 15.0534 162.947 15.0534 162.674 15.144C162.674 15.0534 162.674 14.9629 162.674 14.9629C162.582 14.2387 161.852 14.2387 161.396 14.5103C161.122 13.8766 160.119 13.6955 159.845 14.4198C159.845 14.3292 159.845 14.2387 159.845 14.1482V14.0576C159.936 13.9671 159.936 13.8766 160.027 13.7861V13.605C160.027 13.5145 160.027 13.5145 159.936 13.424C161.214 13.605 162.4 13.9671 163.677 14.4198C163.586 14.6008 163.495 14.6913 163.495 14.9629C163.495 14.9629 163.495 15.0534 163.495 15.144ZM165.685 24.2872C165.228 23.2914 164.681 22.4766 164.225 21.6619C164.407 21.5714 164.498 21.4808 164.681 21.2998C164.772 21.6619 164.772 22.024 164.863 22.3861C165.046 23.2914 166.05 23.1103 166.506 22.5672C166.597 23.3819 166.597 24.1966 166.688 24.9208C166.323 24.7398 166.05 24.4682 165.685 24.2872ZM170.065 26.2787C169.882 24.6493 169.608 22.9293 169.426 21.2998C169.335 20.9377 169.335 20.5756 169.243 20.2135C169.7 22.1145 170.247 23.9251 170.612 25.9166C170.886 27.184 171.068 28.5419 171.251 29.8093C171.251 30.1714 171.342 30.5335 171.342 30.8956C171.16 30.5335 170.886 30.2619 170.703 29.9903C170.43 28.6324 170.247 27.4556 170.065 26.2787ZM170.886 46.0135C170.886 45.923 170.977 45.8325 170.977 45.6514C171.525 46.1041 172.163 46.3757 172.802 46.4662C172.802 46.4662 172.802 46.4662 172.893 46.5567C173.167 46.7378 173.532 47.0093 173.806 47.1904C173.806 47.3714 173.897 47.643 173.897 47.8241C172.893 47.2809 171.89 46.6472 170.886 46.0135ZM174.627 26.7314C174.718 26.7314 174.718 26.7314 174.809 26.7314C174.809 26.8219 174.809 26.9124 174.901 27.0935C175.083 28.0893 175.174 29.0851 175.357 30.0809C175.083 28.904 174.901 27.8177 174.627 26.7314ZM203.553 35.784C203.37 35.6935 203.188 35.6935 203.005 35.784C202.914 34.3356 202.914 32.9777 202.823 31.5293C203.096 32.9777 203.37 34.3356 203.553 35.784ZM202.275 39.9483C202.275 41.2156 202.275 42.483 202.275 43.7504C202.184 44.3841 202.093 45.0178 202.001 45.6514C202.093 43.7504 202.093 41.8493 202.001 39.9483C202.001 39.9483 202.093 39.9483 202.275 39.9483ZM200.906 20.7566C200.906 20.9377 200.998 21.0282 200.998 21.2093C200.998 21.2998 201.089 21.3903 201.089 21.3903C201.089 23.2008 200.998 24.9208 200.998 26.7314C200.998 26.4598 200.906 26.1882 200.906 25.9166C200.724 24.3777 200.541 22.8387 200.359 21.2998C200.541 21.2093 200.815 21.0282 200.906 20.7566ZM199.903 31.3482C200.176 32.7967 200.45 34.2451 200.724 35.6935C200.45 35.5125 199.994 35.5125 199.72 35.6935C199.903 34.4261 199.994 33.1588 199.994 31.8914C199.903 31.7103 199.903 31.5293 199.903 31.3482ZM196.983 11.3419C197.348 11.1608 197.713 10.9797 198.078 10.8892C198.078 10.9797 198.078 11.0703 198.078 11.0703C197.53 10.9797 196.891 11.3418 196.8 11.9755C196.8 12.0661 196.8 12.1566 196.8 12.2471C196.709 12.2471 196.709 12.2471 196.618 12.2471C196.435 12.0661 196.253 11.9755 195.979 11.885C196.344 11.704 196.618 11.5229 196.983 11.3419ZM194.519 12.6997V12.7903C194.884 14.1482 195.158 15.5061 195.432 16.864C195.432 18.1313 195.34 19.3987 195.34 20.5756C195.249 20.5756 195.067 20.5756 194.975 20.6661C194.884 19.5798 194.702 18.4029 194.61 17.3166C194.428 16.1398 194.428 14.7819 194.063 13.605C193.972 13.424 193.88 13.3334 193.789 13.2429C193.972 13.0619 194.245 12.8808 194.519 12.6997ZM192.603 27.0935C192.694 26.7314 192.785 26.2787 192.785 25.9166C192.877 25.9166 192.968 26.0072 193.059 26.0072C192.877 26.9124 192.694 27.8177 192.603 28.723L192.512 28.6324C192.603 27.9988 192.603 27.5461 192.603 27.0935ZM185.029 23.2008C184.847 22.9293 184.664 22.7482 184.482 22.7482C185.029 22.1145 185.486 21.4808 186.033 20.8471C185.668 21.5714 185.303 22.3861 185.029 23.2008ZM186.58 24.6493C186.489 25.464 186.398 26.2787 186.307 27.003C186.307 26.7314 186.215 26.4598 186.124 26.1882C186.307 25.7356 186.398 25.1924 186.58 24.6493ZM187.037 31.1672L186.945 31.0767C186.763 30.9861 186.489 30.8956 186.307 30.8051C186.307 30.624 186.398 30.3524 186.398 30.1714C186.489 30.624 186.854 30.8956 187.128 30.8956C187.128 30.9861 187.037 31.0767 187.037 31.1672ZM187.584 20.304C187.31 20.0324 186.854 19.9419 186.58 20.0324C186.945 19.5798 187.31 19.2177 187.675 18.765C187.675 19.1271 187.675 19.4892 187.767 19.8514C187.767 20.1229 187.675 20.2135 187.584 20.304ZM188.679 24.1061C188.679 24.0156 188.679 23.9251 188.679 23.8345C188.77 23.2914 188.953 22.8387 189.044 22.2956C189.135 22.2956 189.135 22.2956 189.227 22.2956V22.3861C188.953 22.9293 188.77 23.5629 188.679 24.1061ZM208.297 19.8514C208.206 19.0366 208.024 18.2219 207.841 17.4071C208.024 17.4071 208.206 17.4071 208.389 17.3166C208.297 18.1313 208.297 18.9461 208.297 19.8514ZM208.754 10.9797C208.571 10.9797 208.297 10.9797 208.115 11.1608C207.841 10.7082 207.385 10.5271 206.929 10.6176C206.838 10.3461 206.746 10.165 206.655 9.89342C207.385 9.98395 208.115 10.165 208.845 10.4366C208.754 10.6176 208.754 10.7987 208.754 10.9797ZM213.955 25.5545C213.864 25.5545 213.772 25.5545 213.681 25.5545V25.464C213.681 25.1924 213.681 24.9208 213.681 24.6493C213.864 24.6493 214.046 24.5587 214.137 24.4682C214.046 24.8303 214.046 25.1924 213.955 25.5545ZM215.05 16.0492C214.959 16.0492 214.867 16.0492 214.776 16.1398C214.594 15.8682 214.229 15.6871 213.955 15.7777C213.681 14.6913 213.316 13.6955 212.86 12.6997C212.951 12.7903 213.134 12.8808 213.225 13.0619C214.137 13.9671 214.776 14.9629 215.324 15.9587C215.141 15.9587 215.05 16.0492 215.05 16.0492ZM216.054 23.2008C216.145 23.1103 216.236 22.9293 216.236 22.7482C216.236 22.2956 216.236 21.8429 216.327 21.3903C216.327 21.3903 216.419 21.3903 216.419 21.2998C216.419 21.9335 216.419 22.5672 216.327 23.2008C216.236 23.2008 216.145 23.2008 216.054 23.2008Z" fill="#424B5C"/>
</svg>
